<svg width="1311" height="307" viewBox="0 0 1311 307" fill="none" xmlns="http://www.w3.org/2000/svg">
<ellipse cx="978.839" cy="80.9085" rx="67.1906" ry="65.7407" transform="rotate(-165.643 978.839 80.9085)" fill="url(#paint0_linear_114_61)"/>
<ellipse cx="136.301" cy="258.217" rx="26.4923" ry="25.9206" fill="url(#paint1_linear_114_61)"/>
<ellipse cx="361.294" cy="89.9206" rx="26.4923" ry="25.9206" fill="url(#paint2_linear_114_61)"/>
<ellipse cx="334.801" cy="111.897" rx="13.0542" ry="12.9603" fill="url(#paint3_linear_114_61)"/>
<ellipse cx="67.1907" cy="111.897" rx="13.0542" ry="12.9603" fill="url(#paint4_linear_114_61)"/>
<ellipse cx="278.361" cy="249.013" rx="13.0542" ry="12.9603" fill="url(#paint5_linear_114_61)"/>
<ellipse cx="211.171" cy="143.264" rx="6.91104" ry="6.7619" fill="url(#paint6_linear_114_61)"/>
<ellipse cx="527.159" cy="286.204" rx="6.52709" ry="6.57407" fill="url(#paint7_linear_114_61)"/>
<ellipse cx="428.1" cy="249.201" rx="6.52709" ry="6.38624" fill="url(#paint8_linear_114_61)"/>
<ellipse cx="442.498" cy="257.653" rx="2.8796" ry="2.81746" fill="url(#paint9_linear_114_61)"/>
<ellipse cx="411.975" cy="266.669" rx="13.0542" ry="12.9603" fill="url(#paint10_linear_114_61)"/>
<ellipse cx="411.975" cy="266.669" rx="13.0542" ry="12.9603" fill="url(#paint11_linear_114_61)"/>
<ellipse cx="411.975" cy="266.669" rx="13.0542" ry="12.9603" fill="url(#paint12_linear_114_61)"/>
<ellipse cx="411.975" cy="266.669" rx="13.0542" ry="12.9603" fill="url(#paint13_linear_114_61)"/>
<ellipse cx="411.975" cy="266.669" rx="13.0542" ry="12.9603" fill="url(#paint14_linear_114_61)"/>
<ellipse cx="411.975" cy="266.669" rx="13.0542" ry="12.9603" fill="url(#paint15_linear_114_61)"/>
<ellipse cx="278.054" cy="31.9603" rx="13.0542" ry="12.9603" fill="url(#paint16_linear_114_61)"/>
<ellipse cx="278.054" cy="31.9603" rx="13.0542" ry="12.9603" fill="url(#paint17_linear_114_61)"/>
<ellipse cx="278.054" cy="31.9603" rx="13.0542" ry="12.9603" fill="url(#paint18_linear_114_61)"/>
<ellipse cx="278.054" cy="31.9603" rx="13.0542" ry="12.9603" fill="url(#paint19_linear_114_61)"/>
<ellipse cx="278.054" cy="31.9603" rx="13.0542" ry="12.9603" fill="url(#paint20_linear_114_61)"/>
<ellipse cx="278.054" cy="31.9603" rx="13.0542" ry="12.9603" fill="url(#paint21_linear_114_61)"/>
<ellipse cx="308.693" cy="209.381" rx="26.1084" ry="25.545" fill="url(#paint22_linear_114_61)"/>
<ellipse cx="100.21" cy="137.066" rx="19.9652" ry="19.7222" fill="url(#paint23_linear_114_61)"/>
<ellipse cx="363.981" cy="129.365" rx="7.67893" ry="7.51323" fill="url(#paint24_linear_114_61)"/>
<ellipse cx="520.631" cy="125.233" rx="53.3686" ry="52.2169" fill="url(#paint25_linear_114_61)"/>
<ellipse cx="498.938" cy="177.262" rx="21.693" ry="21.2249" fill="url(#paint26_linear_114_61)"/>
<ellipse cx="-2.80936" cy="227.741" rx="67.1906" ry="65.7407" fill="url(#paint27_linear_114_61)"/>
<ellipse cx="85.3057" cy="230.019" rx="45.3057" ry="46.0185" fill="url(#paint28_linear_114_61)"/>
<ellipse cx="1182.61" cy="172.037" rx="45.3057" ry="46.0185" transform="rotate(-165.643 1182.61 172.037)" fill="url(#paint29_linear_114_61)"/>
<ellipse cx="1250.33" cy="226.057" rx="67.1906" ry="65.7407" transform="rotate(-165.643 1250.33 226.057)" fill="url(#paint30_linear_114_61)"/>
<ellipse cx="807.803" cy="218.801" rx="21.693" ry="21.2249" transform="rotate(-165.643 807.803 218.801)" fill="url(#paint31_linear_114_61)"/>
<ellipse cx="1000.07" cy="234.86" rx="26.1084" ry="25.545" transform="rotate(-165.643 1000.07 234.86)" fill="url(#paint32_linear_114_61)"/>
<ellipse cx="1229.63" cy="58.2212" rx="26.1084" ry="25.545" transform="rotate(-165.643 1229.63 58.2212)" fill="url(#paint33_linear_114_61)"/>
<ellipse cx="914.221" cy="153.75" rx="13.0542" ry="12.9603" transform="rotate(-165.643 914.221 153.75)" fill="url(#paint34_linear_114_61)"/>
<ellipse cx="914.221" cy="153.75" rx="13.0542" ry="12.9603" transform="rotate(-165.643 914.221 153.75)" fill="url(#paint35_linear_114_61)"/>
<ellipse cx="914.221" cy="153.75" rx="13.0542" ry="12.9603" transform="rotate(-165.643 914.221 153.75)" fill="url(#paint36_linear_114_61)"/>
<ellipse cx="914.221" cy="153.75" rx="13.0542" ry="12.9603" transform="rotate(-165.643 914.221 153.75)" fill="url(#paint37_linear_114_61)"/>
<ellipse cx="914.221" cy="153.75" rx="13.0542" ry="12.9603" transform="rotate(-165.643 914.221 153.75)" fill="url(#paint38_linear_114_61)"/>
<ellipse cx="914.221" cy="153.75" rx="13.0542" ry="12.9603" transform="rotate(-165.643 914.221 153.75)" fill="url(#paint39_linear_114_61)"/>
<ellipse cx="1179.19" cy="230.297" rx="26.4923" ry="25.9206" transform="rotate(-165.643 1179.19 230.297)" fill="url(#paint40_linear_114_61)"/>
<ellipse cx="186.092" cy="50.6803" rx="26.4923" ry="25.9206" transform="rotate(-165.643 186.092 50.6803)" fill="url(#paint41_linear_114_61)"/>
<ellipse cx="882.414" cy="154.915" rx="2.8796" ry="2.81746" transform="rotate(-165.643 882.414 154.915)" fill="url(#paint42_linear_114_61)"/>
<ellipse cx="894.267" cy="166.674" rx="6.52709" ry="6.38624" transform="rotate(-165.643 894.267 166.674)" fill="url(#paint43_linear_114_61)"/>
<ellipse cx="796.89" cy="73.3076" rx="13.0542" ry="12.9603" transform="rotate(-165.643 796.89 73.3076)" fill="url(#paint44_linear_114_61)"/>
<ellipse cx="807.478" cy="106.264" rx="6.52709" ry="6.57407" transform="rotate(-165.643 807.478 106.264)" fill="url(#paint45_linear_114_61)"/>
<ellipse cx="562.953" cy="57.9873" rx="6.52709" ry="6.57407" transform="rotate(-165.643 562.953 57.9873)" fill="url(#paint46_linear_114_61)"/>
<ellipse cx="1039.28" cy="203.987" rx="13.0542" ry="12.9603" transform="rotate(-165.643 1039.28 203.987)" fill="url(#paint47_linear_114_61)"/>
<defs>
<linearGradient id="paint0_linear_114_61" x1="978.839" y1="15.1678" x2="978.839" y2="146.649" gradientUnits="userSpaceOnUse">
<stop stop-color="#041D18"/>
<stop offset="1" stop-color="#00160E"/>
</linearGradient>
<linearGradient id="paint1_linear_114_61" x1="136.301" y1="232.296" x2="136.301" y2="284.137" gradientUnits="userSpaceOnUse">
<stop stop-color="#032620"/>
<stop offset="1" stop-color="#001511"/>
</linearGradient>
<linearGradient id="paint2_linear_114_61" x1="361.294" y1="64" x2="361.294" y2="115.841" gradientUnits="userSpaceOnUse">
<stop stop-color="#03261C"/>
<stop offset="0.921875" stop-color="#001609"/>
<stop offset="1" stop-color="#000415"/>
</linearGradient>
<linearGradient id="paint3_linear_114_61" x1="334.801" y1="98.9364" x2="334.801" y2="124.857" gradientUnits="userSpaceOnUse">
<stop stop-color="#0B5A3E"/>
<stop offset="1" stop-color="#000415"/>
<stop offset="1" stop-color="#002C21"/>
</linearGradient>
<linearGradient id="paint4_linear_114_61" x1="67.1907" y1="98.9364" x2="67.1907" y2="124.857" gradientUnits="userSpaceOnUse">
<stop stop-color="#0B5A4C"/>
<stop offset="1" stop-color="#000415"/>
<stop offset="1" stop-color="#002C1C"/>
</linearGradient>
<linearGradient id="paint5_linear_114_61" x1="278.361" y1="236.053" x2="278.361" y2="261.973" gradientUnits="userSpaceOnUse">
<stop stop-color="#0B5A47"/>
<stop offset="1" stop-color="#000415"/>
<stop offset="1" stop-color="#002C17"/>
</linearGradient>
<linearGradient id="paint6_linear_114_61" x1="211.171" y1="136.503" x2="211.171" y2="150.026" gradientUnits="userSpaceOnUse">
<stop stop-color="#0B5A43"/>
<stop offset="1" stop-color="#000415"/>
<stop offset="1" stop-color="#002C21"/>
</linearGradient>
<linearGradient id="paint7_linear_114_61" x1="527.158" y1="279.63" x2="527.158" y2="292.778" gradientUnits="userSpaceOnUse">
<stop stop-color="#16A482"/>
<stop offset="1" stop-color="#000415"/>
<stop offset="1" stop-color="#002C24"/>
</linearGradient>
<linearGradient id="paint8_linear_114_61" x1="428.1" y1="242.815" x2="428.1" y2="255.587" gradientUnits="userSpaceOnUse">
<stop stop-color="#0B5A4C"/>
<stop offset="1" stop-color="#000415"/>
<stop offset="1" stop-color="#002C1C"/>
</linearGradient>
<linearGradient id="paint9_linear_114_61" x1="442.498" y1="254.836" x2="442.498" y2="260.471" gradientUnits="userSpaceOnUse">
<stop stop-color="#052820"/>
<stop offset="1" stop-color="#000415"/>
<stop offset="1"/>
</linearGradient>
<linearGradient id="paint10_linear_114_61" x1="411.975" y1="253.709" x2="411.975" y2="279.63" gradientUnits="userSpaceOnUse">
<stop stop-color="#161298"/>
<stop offset="1" stop-color="#000415"/>
<stop offset="1" stop-color="#000D4B"/>
</linearGradient>
<linearGradient id="paint11_linear_114_61" x1="411.975" y1="253.709" x2="411.975" y2="279.63" gradientUnits="userSpaceOnUse">
<stop stop-color="#161298"/>
<stop offset="1" stop-color="#000415"/>
<stop offset="1" stop-color="#000D4B"/>
</linearGradient>
<linearGradient id="paint12_linear_114_61" x1="411.975" y1="253.709" x2="411.975" y2="279.63" gradientUnits="userSpaceOnUse">
<stop stop-color="#161298"/>
<stop offset="1" stop-color="#000415"/>
<stop offset="1" stop-color="#000D4B"/>
</linearGradient>
<linearGradient id="paint13_linear_114_61" x1="411.975" y1="253.709" x2="411.975" y2="279.63" gradientUnits="userSpaceOnUse">
<stop stop-color="#161298"/>
<stop offset="1" stop-color="#000415"/>
<stop offset="1" stop-color="#000D4B"/>
</linearGradient>
<linearGradient id="paint14_linear_114_61" x1="411.975" y1="253.709" x2="411.975" y2="279.63" gradientUnits="userSpaceOnUse">
<stop stop-color="#161298"/>
<stop offset="1" stop-color="#000415"/>
<stop offset="1" stop-color="#000D4B"/>
</linearGradient>
<linearGradient id="paint15_linear_114_61" x1="411.975" y1="253.709" x2="411.975" y2="279.63" gradientUnits="userSpaceOnUse">
<stop stop-color="#129880"/>
<stop offset="1" stop-color="#000415"/>
<stop offset="1" stop-color="#004B27"/>
</linearGradient>
<linearGradient id="paint16_linear_114_61" x1="278.054" y1="19" x2="278.054" y2="44.9206" gradientUnits="userSpaceOnUse">
<stop stop-color="#161298"/>
<stop offset="1" stop-color="#000415"/>
<stop offset="1" stop-color="#000D4B"/>
</linearGradient>
<linearGradient id="paint17_linear_114_61" x1="278.054" y1="19" x2="278.054" y2="44.9206" gradientUnits="userSpaceOnUse">
<stop stop-color="#161298"/>
<stop offset="1" stop-color="#000415"/>
<stop offset="1" stop-color="#000D4B"/>
</linearGradient>
<linearGradient id="paint18_linear_114_61" x1="278.054" y1="19" x2="278.054" y2="44.9206" gradientUnits="userSpaceOnUse">
<stop stop-color="#161298"/>
<stop offset="1" stop-color="#000415"/>
<stop offset="1" stop-color="#000D4B"/>
</linearGradient>
<linearGradient id="paint19_linear_114_61" x1="278.054" y1="19" x2="278.054" y2="44.9206" gradientUnits="userSpaceOnUse">
<stop stop-color="#161298"/>
<stop offset="1" stop-color="#000415"/>
<stop offset="1" stop-color="#000D4B"/>
</linearGradient>
<linearGradient id="paint20_linear_114_61" x1="278.054" y1="19" x2="278.054" y2="44.9206" gradientUnits="userSpaceOnUse">
<stop stop-color="#161298"/>
<stop offset="1" stop-color="#000415"/>
<stop offset="1" stop-color="#000D4B"/>
</linearGradient>
<linearGradient id="paint21_linear_114_61" x1="278.054" y1="19" x2="278.054" y2="44.9206" gradientUnits="userSpaceOnUse">
<stop stop-color="#129880"/>
<stop offset="1" stop-color="#000415"/>
<stop offset="1" stop-color="#004B27"/>
</linearGradient>
<linearGradient id="paint22_linear_114_61" x1="308.693" y1="183.836" x2="308.693" y2="234.926" gradientUnits="userSpaceOnUse">
<stop stop-color="#083A28"/>
<stop offset="0.911458"/>
</linearGradient>
<linearGradient id="paint23_linear_114_61" x1="100.21" y1="117.344" x2="100.21" y2="156.788" gradientUnits="userSpaceOnUse">
<stop stop-color="#107B61"/>
<stop offset="1" stop-color="#000415"/>
<stop offset="1"/>
</linearGradient>
<linearGradient id="paint24_linear_114_61" x1="363.981" y1="121.852" x2="363.981" y2="136.878" gradientUnits="userSpaceOnUse">
<stop stop-color="#0B5A43"/>
<stop offset="1" stop-color="#000415"/>
<stop offset="1" stop-color="#002C21"/>
</linearGradient>
<linearGradient id="paint25_linear_114_61" x1="520.631" y1="73.0158" x2="520.631" y2="177.45" gradientUnits="userSpaceOnUse">
<stop stop-color="#03261C"/>
<stop offset="1" stop-color="#001511"/>
</linearGradient>
<linearGradient id="paint26_linear_114_61" x1="498.938" y1="156.037" x2="498.938" y2="198.487" gradientUnits="userSpaceOnUse">
<stop stop-color="#085845"/>
<stop offset="1" stop-color="#000415"/>
<stop offset="1" stop-color="#00150E"/>
</linearGradient>
<linearGradient id="paint27_linear_114_61" x1="-2.80936" y1="162" x2="-2.80936" y2="293.481" gradientUnits="userSpaceOnUse">
<stop stop-color="#09483D"/>
<stop offset="1"/>
</linearGradient>
<linearGradient id="paint28_linear_114_61" x1="85.3057" y1="184" x2="85.3057" y2="276.037" gradientUnits="userSpaceOnUse">
<stop stop-color="#106C4B"/>
<stop offset="0.776042" stop-color="#001810"/>
</linearGradient>
<linearGradient id="paint29_linear_114_61" x1="1182.61" y1="126.018" x2="1182.61" y2="218.055" gradientUnits="userSpaceOnUse">
<stop stop-color="#106C4B"/>
<stop offset="0.776042" stop-color="#001810"/>
</linearGradient>
<linearGradient id="paint30_linear_114_61" x1="1250.33" y1="160.316" x2="1250.33" y2="291.798" gradientUnits="userSpaceOnUse">
<stop stop-color="#09483D"/>
<stop offset="1"/>
</linearGradient>
<linearGradient id="paint31_linear_114_61" x1="807.803" y1="197.576" x2="807.803" y2="240.026" gradientUnits="userSpaceOnUse">
<stop stop-color="#085845"/>
<stop offset="1" stop-color="#000415"/>
<stop offset="1" stop-color="#00150E"/>
</linearGradient>
<linearGradient id="paint32_linear_114_61" x1="1000.07" y1="209.315" x2="1000.07" y2="260.405" gradientUnits="userSpaceOnUse">
<stop stop-color="#083A28"/>
<stop offset="0.911458"/>
</linearGradient>
<linearGradient id="paint33_linear_114_61" x1="1229.63" y1="32.6762" x2="1229.63" y2="83.7662" gradientUnits="userSpaceOnUse">
<stop stop-color="#083A28"/>
<stop offset="0.911458"/>
</linearGradient>
<linearGradient id="paint34_linear_114_61" x1="914.221" y1="140.79" x2="914.221" y2="166.71" gradientUnits="userSpaceOnUse">
<stop stop-color="#161298"/>
<stop offset="1" stop-color="#000415"/>
<stop offset="1" stop-color="#000D4B"/>
</linearGradient>
<linearGradient id="paint35_linear_114_61" x1="914.221" y1="140.79" x2="914.221" y2="166.71" gradientUnits="userSpaceOnUse">
<stop stop-color="#161298"/>
<stop offset="1" stop-color="#000415"/>
<stop offset="1" stop-color="#000D4B"/>
</linearGradient>
<linearGradient id="paint36_linear_114_61" x1="914.221" y1="140.79" x2="914.221" y2="166.71" gradientUnits="userSpaceOnUse">
<stop stop-color="#161298"/>
<stop offset="1" stop-color="#000415"/>
<stop offset="1" stop-color="#000D4B"/>
</linearGradient>
<linearGradient id="paint37_linear_114_61" x1="914.221" y1="140.79" x2="914.221" y2="166.71" gradientUnits="userSpaceOnUse">
<stop stop-color="#161298"/>
<stop offset="1" stop-color="#000415"/>
<stop offset="1" stop-color="#000D4B"/>
</linearGradient>
<linearGradient id="paint38_linear_114_61" x1="914.221" y1="140.79" x2="914.221" y2="166.71" gradientUnits="userSpaceOnUse">
<stop stop-color="#161298"/>
<stop offset="1" stop-color="#000415"/>
<stop offset="1" stop-color="#000D4B"/>
</linearGradient>
<linearGradient id="paint39_linear_114_61" x1="914.221" y1="140.79" x2="914.221" y2="166.71" gradientUnits="userSpaceOnUse">
<stop stop-color="#129880"/>
<stop offset="1" stop-color="#000415"/>
<stop offset="1" stop-color="#004B27"/>
</linearGradient>
<linearGradient id="paint40_linear_114_61" x1="1179.19" y1="204.376" x2="1179.19" y2="256.217" gradientUnits="userSpaceOnUse">
<stop stop-color="#032620"/>
<stop offset="1" stop-color="#001511"/>
</linearGradient>
<linearGradient id="paint41_linear_114_61" x1="186.092" y1="24.7597" x2="186.092" y2="76.601" gradientUnits="userSpaceOnUse">
<stop stop-color="#032620"/>
<stop offset="1" stop-color="#001511"/>
</linearGradient>
<linearGradient id="paint42_linear_114_61" x1="882.414" y1="152.098" x2="882.414" y2="157.733" gradientUnits="userSpaceOnUse">
<stop stop-color="#052820"/>
<stop offset="1" stop-color="#000415"/>
<stop offset="1"/>
</linearGradient>
<linearGradient id="paint43_linear_114_61" x1="894.267" y1="160.288" x2="894.267" y2="173.06" gradientUnits="userSpaceOnUse">
<stop stop-color="#0B5A4C"/>
<stop offset="1" stop-color="#000415"/>
<stop offset="1" stop-color="#002C1C"/>
</linearGradient>
<linearGradient id="paint44_linear_114_61" x1="796.89" y1="60.3473" x2="796.89" y2="86.2679" gradientUnits="userSpaceOnUse">
<stop stop-color="#083A2E"/>
<stop offset="1" stop-color="#000415"/>
<stop offset="1"/>
</linearGradient>
<linearGradient id="paint45_linear_114_61" x1="807.478" y1="99.6898" x2="807.478" y2="112.838" gradientUnits="userSpaceOnUse">
<stop stop-color="#16A482"/>
<stop offset="1" stop-color="#000415"/>
<stop offset="1" stop-color="#002C24"/>
</linearGradient>
<linearGradient id="paint46_linear_114_61" x1="562.953" y1="51.4132" x2="562.953" y2="64.5614" gradientUnits="userSpaceOnUse">
<stop stop-color="#16A482"/>
<stop offset="1" stop-color="#000415"/>
<stop offset="1" stop-color="#002C24"/>
</linearGradient>
<linearGradient id="paint47_linear_114_61" x1="1039.28" y1="191.026" x2="1039.28" y2="216.947" gradientUnits="userSpaceOnUse">
<stop stop-color="#0B5A47"/>
<stop offset="1" stop-color="#000415"/>
<stop offset="1" stop-color="#002C17"/>
</linearGradient>
</defs>
</svg>
