<svg width="1311" height="671" viewBox="0 0 1311 671" fill="none" xmlns="http://www.w3.org/2000/svg">
<circle cx="239" cy="462" r="69" fill="url(#paint0_linear_2_23)"/>
<circle cx="825" cy="14" r="69" fill="url(#paint1_linear_2_23)"/>
<ellipse cx="756" cy="72.5" rx="34" ry="34.5" fill="url(#paint2_linear_2_23)"/>
<ellipse cx="59" cy="72.5" rx="34" ry="34.5" fill="url(#paint3_linear_2_23)"/>
<ellipse cx="609" cy="437.5" rx="34" ry="34.5" fill="url(#paint4_linear_2_23)"/>
<circle cx="434" cy="156" r="18" fill="url(#paint5_linear_2_23)"/>
<ellipse cx="1257" cy="536.5" rx="17" ry="17.5" fill="url(#paint6_linear_2_23)"/>
<ellipse cx="1305" cy="614.5" rx="34" ry="34.5" fill="url(#paint7_linear_2_23)"/>
<circle cx="999" cy="438" r="17" fill="url(#paint8_linear_2_23)"/>
<circle cx="1036.5" cy="460.5" r="7.5" fill="url(#paint9_linear_2_23)"/>
<ellipse cx="957" cy="484.5" rx="34" ry="34.5" fill="url(#paint10_linear_2_23)"/>
<ellipse cx="957" cy="484.5" rx="34" ry="34.5" fill="url(#paint11_linear_2_23)"/>
<ellipse cx="957" cy="484.5" rx="34" ry="34.5" fill="url(#paint12_linear_2_23)"/>
<ellipse cx="957" cy="484.5" rx="34" ry="34.5" fill="url(#paint13_linear_2_23)"/>
<ellipse cx="957" cy="484.5" rx="34" ry="34.5" fill="url(#paint14_linear_2_23)"/>
<ellipse cx="957" cy="484.5" rx="34" ry="34.5" fill="url(#paint15_linear_2_23)"/>
<circle cx="688" cy="332" r="68" fill="url(#paint16_linear_2_23)"/>
<ellipse cx="145" cy="139.5" rx="52" ry="52.5" fill="url(#paint17_linear_2_23)"/>
<circle cx="832" cy="119" r="20" fill="url(#paint18_linear_2_23)"/>
<circle cx="1240" cy="108" r="139" fill="url(#paint19_linear_2_23)"/>
<circle cx="1183.5" cy="246.5" r="56.5" fill="url(#paint20_linear_2_23)"/>
<circle cx="59" cy="507" r="175" fill="url(#paint21_linear_2_23)"/>
<circle cx="841" cy="715" r="175" fill="url(#paint22_linear_2_23)"/>
<ellipse cx="268" cy="614.5" rx="118" ry="122.5" fill="url(#paint23_linear_2_23)"/>
<defs>
<linearGradient id="paint0_linear_2_23" x1="239" y1="393" x2="239" y2="531" gradientUnits="userSpaceOnUse">
<stop stop-color="#032620"/>
<stop offset="1" stop-color="#001511"/>
</linearGradient>
<linearGradient id="paint1_linear_2_23" x1="825" y1="-55" x2="825" y2="83" gradientUnits="userSpaceOnUse">
<stop stop-color="#03261C"/>
<stop offset="0.921875" stop-color="#001609"/>
<stop offset="1" stop-color="#000415"/>
</linearGradient>
<linearGradient id="paint2_linear_2_23" x1="756" y1="38" x2="756" y2="107" gradientUnits="userSpaceOnUse">
<stop stop-color="#0B5A3E"/>
<stop offset="1" stop-color="#000415"/>
<stop offset="1" stop-color="#002C21"/>
</linearGradient>
<linearGradient id="paint3_linear_2_23" x1="59" y1="38" x2="59" y2="107" gradientUnits="userSpaceOnUse">
<stop stop-color="#0B5A4C"/>
<stop offset="1" stop-color="#000415"/>
<stop offset="1" stop-color="#002C1C"/>
</linearGradient>
<linearGradient id="paint4_linear_2_23" x1="609" y1="403" x2="609" y2="472" gradientUnits="userSpaceOnUse">
<stop stop-color="#0B5A47"/>
<stop offset="1" stop-color="#000415"/>
<stop offset="1" stop-color="#002C17"/>
</linearGradient>
<linearGradient id="paint5_linear_2_23" x1="434" y1="138" x2="434" y2="174" gradientUnits="userSpaceOnUse">
<stop stop-color="#0B5A43"/>
<stop offset="1" stop-color="#000415"/>
<stop offset="1" stop-color="#002C21"/>
</linearGradient>
<linearGradient id="paint6_linear_2_23" x1="1257" y1="519" x2="1257" y2="554" gradientUnits="userSpaceOnUse">
<stop stop-color="#16A482"/>
<stop offset="1" stop-color="#000415"/>
<stop offset="1" stop-color="#002C24"/>
</linearGradient>
<linearGradient id="paint7_linear_2_23" x1="1305" y1="580" x2="1305" y2="649" gradientUnits="userSpaceOnUse">
<stop stop-color="#083A2E"/>
<stop offset="1" stop-color="#000415"/>
<stop offset="1"/>
</linearGradient>
<linearGradient id="paint8_linear_2_23" x1="999" y1="421" x2="999" y2="455" gradientUnits="userSpaceOnUse">
<stop stop-color="#0B5A4C"/>
<stop offset="1" stop-color="#000415"/>
<stop offset="1" stop-color="#002C1C"/>
</linearGradient>
<linearGradient id="paint9_linear_2_23" x1="1036.5" y1="453" x2="1036.5" y2="468" gradientUnits="userSpaceOnUse">
<stop stop-color="#052820"/>
<stop offset="1" stop-color="#000415"/>
<stop offset="1"/>
</linearGradient>
<linearGradient id="paint10_linear_2_23" x1="957" y1="450" x2="957" y2="519" gradientUnits="userSpaceOnUse">
<stop stop-color="#161298"/>
<stop offset="1" stop-color="#000415"/>
<stop offset="1" stop-color="#000D4B"/>
</linearGradient>
<linearGradient id="paint11_linear_2_23" x1="957" y1="450" x2="957" y2="519" gradientUnits="userSpaceOnUse">
<stop stop-color="#161298"/>
<stop offset="1" stop-color="#000415"/>
<stop offset="1" stop-color="#000D4B"/>
</linearGradient>
<linearGradient id="paint12_linear_2_23" x1="957" y1="450" x2="957" y2="519" gradientUnits="userSpaceOnUse">
<stop stop-color="#161298"/>
<stop offset="1" stop-color="#000415"/>
<stop offset="1" stop-color="#000D4B"/>
</linearGradient>
<linearGradient id="paint13_linear_2_23" x1="957" y1="450" x2="957" y2="519" gradientUnits="userSpaceOnUse">
<stop stop-color="#161298"/>
<stop offset="1" stop-color="#000415"/>
<stop offset="1" stop-color="#000D4B"/>
</linearGradient>
<linearGradient id="paint14_linear_2_23" x1="957" y1="450" x2="957" y2="519" gradientUnits="userSpaceOnUse">
<stop stop-color="#161298"/>
<stop offset="1" stop-color="#000415"/>
<stop offset="1" stop-color="#000D4B"/>
</linearGradient>
<linearGradient id="paint15_linear_2_23" x1="957" y1="450" x2="957" y2="519" gradientUnits="userSpaceOnUse">
<stop stop-color="#129880"/>
<stop offset="1" stop-color="#000415"/>
<stop offset="1" stop-color="#004B27"/>
</linearGradient>
<linearGradient id="paint16_linear_2_23" x1="688" y1="264" x2="688" y2="400" gradientUnits="userSpaceOnUse">
<stop stop-color="#083A28"/>
<stop offset="0.911458"/>
</linearGradient>
<linearGradient id="paint17_linear_2_23" x1="145" y1="87" x2="145" y2="192" gradientUnits="userSpaceOnUse">
<stop stop-color="#107B61"/>
<stop offset="1" stop-color="#000415"/>
<stop offset="1"/>
</linearGradient>
<linearGradient id="paint18_linear_2_23" x1="832" y1="99" x2="832" y2="139" gradientUnits="userSpaceOnUse">
<stop stop-color="#0B5A43"/>
<stop offset="1" stop-color="#000415"/>
<stop offset="1" stop-color="#002C21"/>
</linearGradient>
<linearGradient id="paint19_linear_2_23" x1="1240" y1="-31" x2="1240" y2="247" gradientUnits="userSpaceOnUse">
<stop stop-color="#03261C"/>
<stop offset="1" stop-color="#001511"/>
</linearGradient>
<linearGradient id="paint20_linear_2_23" x1="1183.5" y1="190" x2="1183.5" y2="303" gradientUnits="userSpaceOnUse">
<stop stop-color="#085845"/>
<stop offset="1" stop-color="#000415"/>
<stop offset="1" stop-color="#00150E"/>
</linearGradient>
<linearGradient id="paint21_linear_2_23" x1="59" y1="332" x2="59" y2="682" gradientUnits="userSpaceOnUse">
<stop stop-color="#09483D"/>
<stop offset="1"/>
</linearGradient>
<linearGradient id="paint22_linear_2_23" x1="841" y1="540" x2="841" y2="890" gradientUnits="userSpaceOnUse">
<stop stop-color="#041D18"/>
<stop offset="1" stop-color="#00160E"/>
</linearGradient>
<linearGradient id="paint23_linear_2_23" x1="268" y1="492" x2="268" y2="737" gradientUnits="userSpaceOnUse">
<stop stop-color="#106C4B"/>
<stop offset="0.776042" stop-color="#001810"/>
</linearGradient>
</defs>
</svg>
