<svg width="392" height="662" viewBox="0 0 392 662" fill="none" xmlns="http://www.w3.org/2000/svg">
<ellipse cx="29.9301" cy="108.737" rx="13.6716" ry="14.1114" transform="rotate(90.7053 29.9301 108.737)" fill="url(#paint0_linear_120_223)"/>
<ellipse cx="120.116" cy="225.966" rx="13.6716" ry="14.1114" transform="rotate(90.7053 120.116 225.966)" fill="url(#paint1_linear_120_223)"/>
<ellipse cx="108.321" cy="212.148" rx="6.73675" ry="7.05572" transform="rotate(90.7053 108.321 212.148)" fill="url(#paint2_linear_120_223)"/>
<ellipse cx="110.021" cy="74.0549" rx="6.73675" ry="7.05572" transform="rotate(90.7053 110.021 74.0549)" fill="url(#paint3_linear_120_223)"/>
<ellipse cx="34.038" cy="182.105" rx="6.73675" ry="7.05572" transform="rotate(90.7053 34.038 182.105)" fill="url(#paint4_linear_120_223)"/>
<ellipse cx="92.031" cy="148.142" rx="3.56652" ry="3.68125" transform="rotate(90.7053 92.031 148.142)" fill="url(#paint5_linear_120_223)"/>
<ellipse cx="12.2118" cy="310.24" rx="3.36838" ry="3.57899" transform="rotate(90.7053 12.2118 310.24)" fill="url(#paint6_linear_120_223)"/>
<ellipse cx="32.9844" cy="259.372" rx="3.36838" ry="3.47673" transform="rotate(90.7053 32.9844 259.372)" fill="url(#paint7_linear_120_223)"/>
<ellipse cx="28.2915" cy="266.745" rx="1.48605" ry="1.53385" transform="rotate(90.7053 28.2915 266.745)" fill="url(#paint8_linear_120_223)"/>
<ellipse cx="23.5773" cy="250.934" rx="6.73675" ry="7.05572" transform="rotate(90.7053 23.5773 250.934)" fill="url(#paint9_linear_120_223)"/>
<ellipse cx="23.5773" cy="250.934" rx="6.73675" ry="7.05572" transform="rotate(90.7053 23.5773 250.934)" fill="url(#paint10_linear_120_223)"/>
<ellipse cx="23.5773" cy="250.934" rx="6.73675" ry="7.05572" transform="rotate(90.7053 23.5773 250.934)" fill="url(#paint11_linear_120_223)"/>
<ellipse cx="23.5773" cy="250.934" rx="6.73675" ry="7.05572" transform="rotate(90.7053 23.5773 250.934)" fill="url(#paint12_linear_120_223)"/>
<ellipse cx="23.5773" cy="250.934" rx="6.73675" ry="7.05572" transform="rotate(90.7053 23.5773 250.934)" fill="url(#paint13_linear_120_223)"/>
<ellipse cx="23.5773" cy="250.934" rx="6.73675" ry="7.05572" transform="rotate(90.7053 23.5773 250.934)" fill="url(#paint14_linear_120_223)"/>
<ellipse cx="152.196" cy="183.401" rx="6.73675" ry="7.05572" transform="rotate(90.7053 152.196 183.401)" fill="url(#paint15_linear_120_223)"/>
<ellipse cx="152.196" cy="183.401" rx="6.73675" ry="7.05572" transform="rotate(90.7053 152.196 183.401)" fill="url(#paint16_linear_120_223)"/>
<ellipse cx="152.196" cy="183.401" rx="6.73675" ry="7.05572" transform="rotate(90.7053 152.196 183.401)" fill="url(#paint17_linear_120_223)"/>
<ellipse cx="152.196" cy="183.401" rx="6.73675" ry="7.05572" transform="rotate(90.7053 152.196 183.401)" fill="url(#paint18_linear_120_223)"/>
<ellipse cx="152.196" cy="183.401" rx="6.73675" ry="7.05572" transform="rotate(90.7053 152.196 183.401)" fill="url(#paint19_linear_120_223)"/>
<ellipse cx="152.196" cy="183.401" rx="6.73675" ry="7.05572" transform="rotate(90.7053 152.196 183.401)" fill="url(#paint20_linear_120_223)"/>
<ellipse cx="55.4198" cy="198.022" rx="13.4735" ry="13.9069" transform="rotate(90.7053 55.4198 198.022)" fill="url(#paint21_linear_120_223)"/>
<ellipse cx="155.819" cy="504.343" rx="6.73675" ry="7.05572" transform="rotate(119.61 155.819 504.343)" fill="url(#paint22_linear_120_223)"/>
<ellipse cx="74.7759" cy="605.966" rx="3.36838" ry="3.57899" transform="rotate(119.61 74.7759 605.966)" fill="url(#paint23_linear_120_223)"/>
<ellipse cx="117.548" cy="571.476" rx="3.36838" ry="3.47673" transform="rotate(119.61 117.548 571.476)" fill="url(#paint24_linear_120_223)"/>
<ellipse cx="109.876" cy="575.662" rx="1.48605" ry="1.53385" transform="rotate(119.61 109.876 575.662)" fill="url(#paint25_linear_120_223)"/>
<ellipse cx="113.392" cy="559.542" rx="6.73675" ry="7.05572" transform="rotate(119.61 113.392 559.542)" fill="url(#paint26_linear_120_223)"/>
<ellipse cx="113.392" cy="559.542" rx="6.73675" ry="7.05572" transform="rotate(119.61 113.392 559.542)" fill="url(#paint27_linear_120_223)"/>
<ellipse cx="113.392" cy="559.542" rx="6.73675" ry="7.05572" transform="rotate(119.61 113.392 559.542)" fill="url(#paint28_linear_120_223)"/>
<ellipse cx="113.392" cy="559.542" rx="6.73675" ry="7.05572" transform="rotate(119.61 113.392 559.542)" fill="url(#paint29_linear_120_223)"/>
<ellipse cx="113.392" cy="559.542" rx="6.73675" ry="7.05572" transform="rotate(119.61 113.392 559.542)" fill="url(#paint30_linear_120_223)"/>
<ellipse cx="113.392" cy="559.542" rx="6.73675" ry="7.05572" transform="rotate(119.61 113.392 559.542)" fill="url(#paint31_linear_120_223)"/>
<ellipse cx="166.843" cy="528.613" rx="13.4735" ry="13.9069" transform="rotate(119.61 166.843 528.613)" fill="url(#paint32_linear_120_223)"/>
<ellipse cx="96.1101" cy="90.925" rx="10.3033" ry="10.737" transform="rotate(90.7053 96.1101 90.925)" fill="url(#paint33_linear_120_223)"/>
<ellipse cx="98.6267" cy="227.088" rx="3.9628" ry="4.09027" transform="rotate(90.7053 98.6267 227.088)" fill="url(#paint34_linear_120_223)"/>
<ellipse cx="99.8809" cy="307.951" rx="27.5414" ry="28.4274" transform="rotate(90.7053 99.8809 307.951)" fill="url(#paint35_linear_120_223)"/>
<ellipse cx="71.6958" cy="296.408" rx="11.1949" ry="11.555" transform="rotate(90.7053 71.6958 296.408)" fill="url(#paint36_linear_120_223)"/>
<ellipse cx="47.4041" cy="37.1571" rx="34.6745" ry="35.7899" transform="rotate(90.7053 47.4041 37.1571)" fill="url(#paint37_linear_120_223)"/>
<ellipse cx="45.6043" cy="82.6111" rx="23.3805" ry="25.0529" transform="rotate(90.7053 45.6043 82.6111)" fill="url(#paint38_linear_120_223)"/>
<circle cx="108.072" cy="461.483" r="23" transform="rotate(-104.669 108.072 461.483)" fill="url(#paint39_linear_120_223)"/>
<ellipse rx="23.4615" ry="24.9747" transform="matrix(0.272551 -0.962141 0.968827 0.247737 74.2788 594.709)" fill="url(#paint40_linear_120_223)"/>
<ellipse rx="34.7946" ry="35.6781" transform="matrix(0.272551 -0.962141 0.968827 0.247737 44.4416 629.294)" fill="url(#paint41_linear_120_223)"/>
<ellipse rx="11.2337" ry="11.5189" transform="matrix(0.272551 -0.962141 0.968827 0.247737 51.203 400.988)" fill="url(#paint42_linear_120_223)"/>
<ellipse rx="13.5202" ry="13.8635" transform="matrix(0.272551 -0.962141 0.968827 0.247737 41.2395 500.095)" fill="url(#paint43_linear_120_223)"/>
<ellipse rx="13.5202" ry="13.8635" transform="matrix(0.272551 -0.962141 0.968827 0.247737 135.938 619.735)" fill="url(#paint44_linear_120_223)"/>
<ellipse rx="6.76009" ry="7.03368" transform="matrix(0.272551 -0.962141 0.968827 0.247737 85.9384 456.338)" fill="url(#paint45_linear_120_223)"/>
<ellipse rx="6.76009" ry="7.03368" transform="matrix(0.272551 -0.962141 0.968827 0.247737 85.9384 456.338)" fill="url(#paint46_linear_120_223)"/>
<ellipse rx="6.76009" ry="7.03368" transform="matrix(0.272551 -0.962141 0.968827 0.247737 85.9384 456.338)" fill="url(#paint47_linear_120_223)"/>
<ellipse rx="6.76009" ry="7.03368" transform="matrix(0.272551 -0.962141 0.968827 0.247737 85.9384 456.338)" fill="url(#paint48_linear_120_223)"/>
<ellipse rx="6.76009" ry="7.03368" transform="matrix(0.272551 -0.962141 0.968827 0.247737 85.9384 456.338)" fill="url(#paint49_linear_120_223)"/>
<ellipse rx="6.76009" ry="7.03368" transform="matrix(0.272551 -0.962141 0.968827 0.247737 85.9384 456.338)" fill="url(#paint50_linear_120_223)"/>
<ellipse rx="13.719" ry="14.0674" transform="matrix(0.272551 -0.962141 0.968827 0.247737 42.5856 592.554)" fill="url(#paint51_linear_120_223)"/>
<ellipse rx="13.719" ry="14.0674" transform="matrix(0.272551 -0.962141 0.968827 0.247737 142.59 135.821)" fill="url(#paint52_linear_120_223)"/>
<ellipse cx="365.065" cy="649.367" rx="13.6716" ry="14.1114" transform="rotate(-67.1439 365.065 649.367)" fill="url(#paint53_linear_120_223)"/>
<ellipse cx="209.324" cy="463.136" rx="13.6716" ry="14.1114" transform="rotate(-67.1439 209.324 463.136)" fill="url(#paint54_linear_120_223)"/>
<ellipse cx="232.118" cy="513.948" rx="6.73675" ry="7.05572" transform="rotate(-67.1439 232.118 513.948)" fill="url(#paint55_linear_120_223)"/>
<ellipse cx="195.066" cy="578.672" rx="6.73675" ry="7.05572" transform="rotate(-67.1439 195.066 578.672)" fill="url(#paint56_linear_120_223)"/>
<ellipse cx="254.679" cy="544.332" rx="6.73675" ry="7.05572" transform="rotate(-67.1439 254.679 544.332)" fill="url(#paint57_linear_120_223)"/>
<ellipse cx="236.443" cy="543.311" rx="3.56652" ry="3.68125" transform="rotate(-67.1439 236.443 543.311)" fill="url(#paint58_linear_120_223)"/>
<path d="M269.118 617.533C272.709 619.046 274.449 623.053 273.003 626.481C271.558 629.91 267.476 631.462 263.885 629.948C260.294 628.435 258.555 624.428 260 621C261.445 617.571 265.528 616.019 269.118 617.533Z" fill="url(#paint59_linear_120_223)"/>
<path d="M269.118 617.533C272.709 619.046 274.449 623.053 273.003 626.481C271.558 629.91 267.476 631.462 263.885 629.948C260.294 628.435 258.555 624.428 260 621C261.445 617.571 265.528 616.019 269.118 617.533Z" fill="url(#paint60_linear_120_223)"/>
<path d="M269.118 617.533C272.709 619.046 274.449 623.053 273.003 626.481C271.558 629.91 267.476 631.462 263.885 629.948C260.294 628.435 258.555 624.428 260 621C261.445 617.571 265.528 616.019 269.118 617.533Z" fill="url(#paint61_linear_120_223)"/>
<path d="M269.118 617.533C272.709 619.046 274.449 623.053 273.003 626.481C271.558 629.91 267.476 631.462 263.885 629.948C260.294 628.435 258.555 624.428 260 621C261.445 617.571 265.528 616.019 269.118 617.533Z" fill="url(#paint62_linear_120_223)"/>
<path d="M269.118 617.533C272.709 619.046 274.449 623.053 273.003 626.481C271.558 629.91 267.476 631.462 263.885 629.948C260.294 628.435 258.555 624.428 260 621C261.445 617.571 265.528 616.019 269.118 617.533Z" fill="url(#paint63_linear_120_223)"/>
<path d="M269.118 617.533C272.709 619.046 274.449 623.053 273.003 626.481C271.558 629.91 267.476 631.462 263.885 629.948C260.294 628.435 258.555 624.428 260 621C261.445 617.571 265.528 616.019 269.118 617.533Z" fill="url(#paint64_linear_120_223)"/>
<ellipse cx="222.73" cy="579.853" rx="10.3033" ry="10.737" transform="rotate(-67.1439 222.73 579.853)" fill="url(#paint65_linear_120_223)"/>
<ellipse cx="260.525" cy="552.09" rx="3.9628" ry="4.09027" transform="rotate(-67.1439 260.525 552.09)" fill="url(#paint66_linear_120_223)"/>
<ellipse cx="213" cy="659.247" rx="59.5228" ry="62.8121" transform="rotate(-67.1439 213 659.247)" fill="url(#paint67_linear_120_223)"/>
<ellipse cx="310.762" cy="646.591" rx="23.3805" ry="25.0529" transform="rotate(-67.1439 310.762 646.591)" fill="url(#paint68_linear_120_223)"/>
<ellipse rx="13.719" ry="14.0674" transform="matrix(-0.615206 0.788367 -0.803915 -0.594744 206.909 542.385)" fill="url(#paint69_linear_120_223)"/>
<ellipse rx="1.4912" ry="1.52906" transform="matrix(0.272551 -0.962141 0.968827 0.247737 85.5062 439.917)" fill="url(#paint70_linear_120_223)"/>
<ellipse rx="3.38005" ry="3.46587" transform="matrix(0.272551 -0.962141 0.968827 0.247737 79.0298 445.954)" fill="url(#paint71_linear_120_223)"/>
<ellipse rx="6.76009" ry="7.03368" transform="matrix(0.272551 -0.962141 0.968827 0.247737 130.474 396.331)" fill="url(#paint72_linear_120_223)"/>
<ellipse rx="3.38005" ry="3.56781" transform="matrix(0.272551 -0.962141 0.968827 0.247737 112.467 401.574)" fill="url(#paint73_linear_120_223)"/>
<ellipse rx="3.38005" ry="3.56781" transform="matrix(0.272551 -0.962141 0.968827 0.247737 136.218 330.241)" fill="url(#paint74_linear_120_223)"/>
<ellipse rx="6.76009" ry="7.03368" transform="matrix(0.272551 -0.962141 0.968827 0.247737 57.7968 520.536)" fill="url(#paint75_linear_120_223)"/>
<path d="M-8.86889 384.513C25.1375 393.208 45.0645 427.23 35.6395 460.501C26.2144 493.773 -8.99365 513.696 -43 505C-77.0063 496.304 -96.9334 462.283 -87.5084 429.011C-78.0833 395.74 -42.8752 375.817 -8.86889 384.513Z" fill="url(#paint76_linear_120_223)"/>
<defs>
<linearGradient id="paint0_linear_120_223" x1="29.9301" y1="94.6255" x2="29.9301" y2="122.848" gradientUnits="userSpaceOnUse">
<stop stop-color="#032620"/>
<stop offset="1" stop-color="#001511"/>
</linearGradient>
<linearGradient id="paint1_linear_120_223" x1="120.116" y1="211.854" x2="120.116" y2="240.077" gradientUnits="userSpaceOnUse">
<stop stop-color="#03261C"/>
<stop offset="0.921875" stop-color="#001609"/>
<stop offset="1" stop-color="#000415"/>
</linearGradient>
<linearGradient id="paint2_linear_120_223" x1="108.321" y1="205.092" x2="108.321" y2="219.204" gradientUnits="userSpaceOnUse">
<stop stop-color="#0B5A3E"/>
<stop offset="1" stop-color="#000415"/>
<stop offset="1" stop-color="#002C21"/>
</linearGradient>
<linearGradient id="paint3_linear_120_223" x1="110.021" y1="66.9992" x2="110.021" y2="81.1106" gradientUnits="userSpaceOnUse">
<stop stop-color="#0B5A4C"/>
<stop offset="1" stop-color="#000415"/>
<stop offset="1" stop-color="#002C1C"/>
</linearGradient>
<linearGradient id="paint4_linear_120_223" x1="34.038" y1="175.049" x2="34.038" y2="189.16" gradientUnits="userSpaceOnUse">
<stop stop-color="#0B5A47"/>
<stop offset="1" stop-color="#000415"/>
<stop offset="1" stop-color="#002C17"/>
</linearGradient>
<linearGradient id="paint5_linear_120_223" x1="92.031" y1="144.46" x2="92.031" y2="151.823" gradientUnits="userSpaceOnUse">
<stop stop-color="#0B5A43"/>
<stop offset="1" stop-color="#000415"/>
<stop offset="1" stop-color="#002C21"/>
</linearGradient>
<linearGradient id="paint6_linear_120_223" x1="12.2118" y1="306.661" x2="12.2118" y2="313.819" gradientUnits="userSpaceOnUse">
<stop stop-color="#16A482"/>
<stop offset="1" stop-color="#000415"/>
<stop offset="1" stop-color="#002C24"/>
</linearGradient>
<linearGradient id="paint7_linear_120_223" x1="32.9844" y1="255.895" x2="32.9844" y2="262.849" gradientUnits="userSpaceOnUse">
<stop stop-color="#0B5A4C"/>
<stop offset="1" stop-color="#000415"/>
<stop offset="1" stop-color="#002C1C"/>
</linearGradient>
<linearGradient id="paint8_linear_120_223" x1="28.2915" y1="265.211" x2="28.2915" y2="268.279" gradientUnits="userSpaceOnUse">
<stop stop-color="#052820"/>
<stop offset="1" stop-color="#000415"/>
<stop offset="1"/>
</linearGradient>
<linearGradient id="paint9_linear_120_223" x1="23.5773" y1="243.878" x2="23.5773" y2="257.99" gradientUnits="userSpaceOnUse">
<stop stop-color="#161298"/>
<stop offset="1" stop-color="#000415"/>
<stop offset="1" stop-color="#000D4B"/>
</linearGradient>
<linearGradient id="paint10_linear_120_223" x1="23.5773" y1="243.878" x2="23.5773" y2="257.99" gradientUnits="userSpaceOnUse">
<stop stop-color="#161298"/>
<stop offset="1" stop-color="#000415"/>
<stop offset="1" stop-color="#000D4B"/>
</linearGradient>
<linearGradient id="paint11_linear_120_223" x1="23.5773" y1="243.878" x2="23.5773" y2="257.99" gradientUnits="userSpaceOnUse">
<stop stop-color="#161298"/>
<stop offset="1" stop-color="#000415"/>
<stop offset="1" stop-color="#000D4B"/>
</linearGradient>
<linearGradient id="paint12_linear_120_223" x1="23.5773" y1="243.878" x2="23.5773" y2="257.99" gradientUnits="userSpaceOnUse">
<stop stop-color="#161298"/>
<stop offset="1" stop-color="#000415"/>
<stop offset="1" stop-color="#000D4B"/>
</linearGradient>
<linearGradient id="paint13_linear_120_223" x1="23.5773" y1="243.878" x2="23.5773" y2="257.99" gradientUnits="userSpaceOnUse">
<stop stop-color="#161298"/>
<stop offset="1" stop-color="#000415"/>
<stop offset="1" stop-color="#000D4B"/>
</linearGradient>
<linearGradient id="paint14_linear_120_223" x1="23.5773" y1="243.878" x2="23.5773" y2="257.99" gradientUnits="userSpaceOnUse">
<stop stop-color="#129880"/>
<stop offset="1" stop-color="#000415"/>
<stop offset="1" stop-color="#004B27"/>
</linearGradient>
<linearGradient id="paint15_linear_120_223" x1="152.196" y1="176.345" x2="152.196" y2="190.457" gradientUnits="userSpaceOnUse">
<stop stop-color="#161298"/>
<stop offset="1" stop-color="#000415"/>
<stop offset="1" stop-color="#000D4B"/>
</linearGradient>
<linearGradient id="paint16_linear_120_223" x1="152.196" y1="176.345" x2="152.196" y2="190.457" gradientUnits="userSpaceOnUse">
<stop stop-color="#161298"/>
<stop offset="1" stop-color="#000415"/>
<stop offset="1" stop-color="#000D4B"/>
</linearGradient>
<linearGradient id="paint17_linear_120_223" x1="152.196" y1="176.345" x2="152.196" y2="190.457" gradientUnits="userSpaceOnUse">
<stop stop-color="#161298"/>
<stop offset="1" stop-color="#000415"/>
<stop offset="1" stop-color="#000D4B"/>
</linearGradient>
<linearGradient id="paint18_linear_120_223" x1="152.196" y1="176.345" x2="152.196" y2="190.457" gradientUnits="userSpaceOnUse">
<stop stop-color="#161298"/>
<stop offset="1" stop-color="#000415"/>
<stop offset="1" stop-color="#000D4B"/>
</linearGradient>
<linearGradient id="paint19_linear_120_223" x1="152.196" y1="176.345" x2="152.196" y2="190.457" gradientUnits="userSpaceOnUse">
<stop stop-color="#161298"/>
<stop offset="1" stop-color="#000415"/>
<stop offset="1" stop-color="#000D4B"/>
</linearGradient>
<linearGradient id="paint20_linear_120_223" x1="152.196" y1="176.345" x2="152.196" y2="190.457" gradientUnits="userSpaceOnUse">
<stop stop-color="#129880"/>
<stop offset="1" stop-color="#000415"/>
<stop offset="1" stop-color="#004B27"/>
</linearGradient>
<linearGradient id="paint21_linear_120_223" x1="55.4198" y1="184.115" x2="55.4198" y2="211.929" gradientUnits="userSpaceOnUse">
<stop stop-color="#083A28"/>
<stop offset="0.911458"/>
</linearGradient>
<linearGradient id="paint22_linear_120_223" x1="155.819" y1="497.287" x2="155.819" y2="511.399" gradientUnits="userSpaceOnUse">
<stop stop-color="#0B5A47"/>
<stop offset="1" stop-color="#000415"/>
<stop offset="1" stop-color="#002C17"/>
</linearGradient>
<linearGradient id="paint23_linear_120_223" x1="74.7759" y1="602.387" x2="74.7759" y2="609.545" gradientUnits="userSpaceOnUse">
<stop stop-color="#16A482"/>
<stop offset="1" stop-color="#000415"/>
<stop offset="1" stop-color="#002C24"/>
</linearGradient>
<linearGradient id="paint24_linear_120_223" x1="117.548" y1="567.999" x2="117.548" y2="574.952" gradientUnits="userSpaceOnUse">
<stop stop-color="#0B5A4C"/>
<stop offset="1" stop-color="#000415"/>
<stop offset="1" stop-color="#002C1C"/>
</linearGradient>
<linearGradient id="paint25_linear_120_223" x1="109.876" y1="574.128" x2="109.876" y2="577.196" gradientUnits="userSpaceOnUse">
<stop stop-color="#052820"/>
<stop offset="1" stop-color="#000415"/>
<stop offset="1"/>
</linearGradient>
<linearGradient id="paint26_linear_120_223" x1="113.392" y1="552.486" x2="113.392" y2="566.597" gradientUnits="userSpaceOnUse">
<stop stop-color="#161298"/>
<stop offset="1" stop-color="#000415"/>
<stop offset="1" stop-color="#000D4B"/>
</linearGradient>
<linearGradient id="paint27_linear_120_223" x1="113.392" y1="552.486" x2="113.392" y2="566.597" gradientUnits="userSpaceOnUse">
<stop stop-color="#161298"/>
<stop offset="1" stop-color="#000415"/>
<stop offset="1" stop-color="#000D4B"/>
</linearGradient>
<linearGradient id="paint28_linear_120_223" x1="113.392" y1="552.486" x2="113.392" y2="566.597" gradientUnits="userSpaceOnUse">
<stop stop-color="#161298"/>
<stop offset="1" stop-color="#000415"/>
<stop offset="1" stop-color="#000D4B"/>
</linearGradient>
<linearGradient id="paint29_linear_120_223" x1="113.392" y1="552.486" x2="113.392" y2="566.597" gradientUnits="userSpaceOnUse">
<stop stop-color="#161298"/>
<stop offset="1" stop-color="#000415"/>
<stop offset="1" stop-color="#000D4B"/>
</linearGradient>
<linearGradient id="paint30_linear_120_223" x1="113.392" y1="552.486" x2="113.392" y2="566.597" gradientUnits="userSpaceOnUse">
<stop stop-color="#161298"/>
<stop offset="1" stop-color="#000415"/>
<stop offset="1" stop-color="#000D4B"/>
</linearGradient>
<linearGradient id="paint31_linear_120_223" x1="113.392" y1="552.486" x2="113.392" y2="566.597" gradientUnits="userSpaceOnUse">
<stop stop-color="#129880"/>
<stop offset="1" stop-color="#000415"/>
<stop offset="1" stop-color="#004B27"/>
</linearGradient>
<linearGradient id="paint32_linear_120_223" x1="166.843" y1="514.706" x2="166.843" y2="542.52" gradientUnits="userSpaceOnUse">
<stop stop-color="#083A28"/>
<stop offset="0.911458"/>
</linearGradient>
<linearGradient id="paint33_linear_120_223" x1="96.1101" y1="80.188" x2="96.1101" y2="101.662" gradientUnits="userSpaceOnUse">
<stop stop-color="#107B61"/>
<stop offset="1" stop-color="#000415"/>
<stop offset="1"/>
</linearGradient>
<linearGradient id="paint34_linear_120_223" x1="98.6267" y1="222.998" x2="98.6267" y2="231.179" gradientUnits="userSpaceOnUse">
<stop stop-color="#0B5A43"/>
<stop offset="1" stop-color="#000415"/>
<stop offset="1" stop-color="#002C21"/>
</linearGradient>
<linearGradient id="paint35_linear_120_223" x1="99.8809" y1="279.524" x2="99.8809" y2="336.378" gradientUnits="userSpaceOnUse">
<stop stop-color="#03261C"/>
<stop offset="1" stop-color="#001511"/>
</linearGradient>
<linearGradient id="paint36_linear_120_223" x1="71.6958" y1="284.853" x2="71.6958" y2="307.963" gradientUnits="userSpaceOnUse">
<stop stop-color="#085845"/>
<stop offset="1" stop-color="#000415"/>
<stop offset="1" stop-color="#00150E"/>
</linearGradient>
<linearGradient id="paint37_linear_120_223" x1="47.4041" y1="1.36716" x2="47.4041" y2="72.9469" gradientUnits="userSpaceOnUse">
<stop stop-color="#09483D"/>
<stop offset="1"/>
</linearGradient>
<linearGradient id="paint38_linear_120_223" x1="45.6043" y1="57.5582" x2="45.6043" y2="107.664" gradientUnits="userSpaceOnUse">
<stop stop-color="#106C4B"/>
<stop offset="0.776042" stop-color="#001810"/>
</linearGradient>
<linearGradient id="paint39_linear_120_223" x1="108.072" y1="438.483" x2="108.072" y2="484.483" gradientUnits="userSpaceOnUse">
<stop stop-color="#106C4B"/>
<stop offset="0.776042" stop-color="#001810"/>
</linearGradient>
<linearGradient id="paint40_linear_120_223" x1="23.4615" y1="0" x2="23.4615" y2="49.9494" gradientUnits="userSpaceOnUse">
<stop stop-color="#106C4B"/>
<stop offset="0.776042" stop-color="#001810"/>
</linearGradient>
<linearGradient id="paint41_linear_120_223" x1="34.7946" y1="0" x2="34.7946" y2="71.3562" gradientUnits="userSpaceOnUse">
<stop stop-color="#09483D"/>
<stop offset="1"/>
</linearGradient>
<linearGradient id="paint42_linear_120_223" x1="11.2337" y1="0" x2="11.2337" y2="23.0379" gradientUnits="userSpaceOnUse">
<stop stop-color="#085845"/>
<stop offset="1" stop-color="#000415"/>
<stop offset="1" stop-color="#00150E"/>
</linearGradient>
<linearGradient id="paint43_linear_120_223" x1="13.5202" y1="0" x2="13.5202" y2="27.727" gradientUnits="userSpaceOnUse">
<stop stop-color="#083A28"/>
<stop offset="0.911458"/>
</linearGradient>
<linearGradient id="paint44_linear_120_223" x1="13.5202" y1="0" x2="13.5202" y2="27.727" gradientUnits="userSpaceOnUse">
<stop stop-color="#083A28"/>
<stop offset="0.911458"/>
</linearGradient>
<linearGradient id="paint45_linear_120_223" x1="6.76009" y1="0" x2="6.76009" y2="14.0674" gradientUnits="userSpaceOnUse">
<stop stop-color="#161298"/>
<stop offset="1" stop-color="#000415"/>
<stop offset="1" stop-color="#000D4B"/>
</linearGradient>
<linearGradient id="paint46_linear_120_223" x1="6.76009" y1="0" x2="6.76009" y2="14.0674" gradientUnits="userSpaceOnUse">
<stop stop-color="#161298"/>
<stop offset="1" stop-color="#000415"/>
<stop offset="1" stop-color="#000D4B"/>
</linearGradient>
<linearGradient id="paint47_linear_120_223" x1="6.76009" y1="0" x2="6.76009" y2="14.0674" gradientUnits="userSpaceOnUse">
<stop stop-color="#161298"/>
<stop offset="1" stop-color="#000415"/>
<stop offset="1" stop-color="#000D4B"/>
</linearGradient>
<linearGradient id="paint48_linear_120_223" x1="6.76009" y1="0" x2="6.76009" y2="14.0674" gradientUnits="userSpaceOnUse">
<stop stop-color="#161298"/>
<stop offset="1" stop-color="#000415"/>
<stop offset="1" stop-color="#000D4B"/>
</linearGradient>
<linearGradient id="paint49_linear_120_223" x1="6.76009" y1="0" x2="6.76009" y2="14.0674" gradientUnits="userSpaceOnUse">
<stop stop-color="#161298"/>
<stop offset="1" stop-color="#000415"/>
<stop offset="1" stop-color="#000D4B"/>
</linearGradient>
<linearGradient id="paint50_linear_120_223" x1="6.76009" y1="0" x2="6.76009" y2="14.0674" gradientUnits="userSpaceOnUse">
<stop stop-color="#129880"/>
<stop offset="1" stop-color="#000415"/>
<stop offset="1" stop-color="#004B27"/>
</linearGradient>
<linearGradient id="paint51_linear_120_223" x1="13.719" y1="0" x2="13.719" y2="28.1347" gradientUnits="userSpaceOnUse">
<stop stop-color="#032620"/>
<stop offset="1" stop-color="#001511"/>
</linearGradient>
<linearGradient id="paint52_linear_120_223" x1="13.719" y1="0" x2="13.719" y2="28.1347" gradientUnits="userSpaceOnUse">
<stop stop-color="#032620"/>
<stop offset="1" stop-color="#001511"/>
</linearGradient>
<linearGradient id="paint53_linear_120_223" x1="365.065" y1="635.256" x2="365.065" y2="663.479" gradientUnits="userSpaceOnUse">
<stop stop-color="#032620"/>
<stop offset="1" stop-color="#001511"/>
</linearGradient>
<linearGradient id="paint54_linear_120_223" x1="209.324" y1="449.025" x2="209.324" y2="477.248" gradientUnits="userSpaceOnUse">
<stop stop-color="#03261C"/>
<stop offset="0.921875" stop-color="#001609"/>
<stop offset="1" stop-color="#000415"/>
</linearGradient>
<linearGradient id="paint55_linear_120_223" x1="232.118" y1="506.893" x2="232.118" y2="521.004" gradientUnits="userSpaceOnUse">
<stop stop-color="#0B5A3E"/>
<stop offset="1" stop-color="#000415"/>
<stop offset="1" stop-color="#002C21"/>
</linearGradient>
<linearGradient id="paint56_linear_120_223" x1="195.066" y1="571.616" x2="195.066" y2="585.728" gradientUnits="userSpaceOnUse">
<stop stop-color="#0B5A4C"/>
<stop offset="1" stop-color="#000415"/>
<stop offset="1" stop-color="#002C1C"/>
</linearGradient>
<linearGradient id="paint57_linear_120_223" x1="254.679" y1="537.276" x2="254.679" y2="551.387" gradientUnits="userSpaceOnUse">
<stop stop-color="#0B5A47"/>
<stop offset="1" stop-color="#000415"/>
<stop offset="1" stop-color="#002C17"/>
</linearGradient>
<linearGradient id="paint58_linear_120_223" x1="236.443" y1="539.63" x2="236.443" y2="546.993" gradientUnits="userSpaceOnUse">
<stop stop-color="#0B5A43"/>
<stop offset="1" stop-color="#000415"/>
<stop offset="1" stop-color="#002C21"/>
</linearGradient>
<linearGradient id="paint59_linear_120_223" x1="192.045" y1="499.01" x2="205.049" y2="504.491" gradientUnits="userSpaceOnUse">
<stop stop-color="#161298"/>
<stop offset="1" stop-color="#000415"/>
<stop offset="1" stop-color="#000D4B"/>
</linearGradient>
<linearGradient id="paint60_linear_120_223" x1="192.045" y1="499.01" x2="205.049" y2="504.491" gradientUnits="userSpaceOnUse">
<stop stop-color="#161298"/>
<stop offset="1" stop-color="#000415"/>
<stop offset="1" stop-color="#000D4B"/>
</linearGradient>
<linearGradient id="paint61_linear_120_223" x1="192.045" y1="499.01" x2="205.049" y2="504.491" gradientUnits="userSpaceOnUse">
<stop stop-color="#161298"/>
<stop offset="1" stop-color="#000415"/>
<stop offset="1" stop-color="#000D4B"/>
</linearGradient>
<linearGradient id="paint62_linear_120_223" x1="192.045" y1="499.01" x2="205.049" y2="504.491" gradientUnits="userSpaceOnUse">
<stop stop-color="#161298"/>
<stop offset="1" stop-color="#000415"/>
<stop offset="1" stop-color="#000D4B"/>
</linearGradient>
<linearGradient id="paint63_linear_120_223" x1="192.045" y1="499.01" x2="205.049" y2="504.491" gradientUnits="userSpaceOnUse">
<stop stop-color="#161298"/>
<stop offset="1" stop-color="#000415"/>
<stop offset="1" stop-color="#000D4B"/>
</linearGradient>
<linearGradient id="paint64_linear_120_223" x1="192.045" y1="499.01" x2="205.049" y2="504.491" gradientUnits="userSpaceOnUse">
<stop stop-color="#129880"/>
<stop offset="1" stop-color="#000415"/>
<stop offset="1" stop-color="#004B27"/>
</linearGradient>
<linearGradient id="paint65_linear_120_223" x1="222.73" y1="569.116" x2="222.73" y2="590.59" gradientUnits="userSpaceOnUse">
<stop stop-color="#107B61"/>
<stop offset="1" stop-color="#000415"/>
<stop offset="1"/>
</linearGradient>
<linearGradient id="paint66_linear_120_223" x1="260.525" y1="548" x2="260.525" y2="556.18" gradientUnits="userSpaceOnUse">
<stop stop-color="#0B5A43"/>
<stop offset="1" stop-color="#000415"/>
<stop offset="1" stop-color="#002C21"/>
</linearGradient>
<linearGradient id="paint67_linear_120_223" x1="213" y1="596.435" x2="213" y2="722.059" gradientUnits="userSpaceOnUse">
<stop stop-color="#09483D"/>
<stop offset="1"/>
</linearGradient>
<linearGradient id="paint68_linear_120_223" x1="310.762" y1="621.538" x2="310.762" y2="671.644" gradientUnits="userSpaceOnUse">
<stop stop-color="#106C4B"/>
<stop offset="0.776042" stop-color="#001810"/>
</linearGradient>
<linearGradient id="paint69_linear_120_223" x1="13.2568" y1="29.2353" x2="12.6174" y2="4.84702" gradientUnits="userSpaceOnUse">
<stop stop-color="#3E8679"/>
<stop offset="1" stop-color="#001511"/>
</linearGradient>
<linearGradient id="paint70_linear_120_223" x1="1.4912" y1="0" x2="1.4912" y2="3.05812" gradientUnits="userSpaceOnUse">
<stop stop-color="#052820"/>
<stop offset="1" stop-color="#000415"/>
<stop offset="1"/>
</linearGradient>
<linearGradient id="paint71_linear_120_223" x1="3.38005" y1="0" x2="3.38005" y2="6.93175" gradientUnits="userSpaceOnUse">
<stop stop-color="#0B5A4C"/>
<stop offset="1" stop-color="#000415"/>
<stop offset="1" stop-color="#002C1C"/>
</linearGradient>
<linearGradient id="paint72_linear_120_223" x1="6.76009" y1="0" x2="6.76009" y2="14.0674" gradientUnits="userSpaceOnUse">
<stop stop-color="#083A2E"/>
<stop offset="1" stop-color="#000415"/>
<stop offset="1"/>
</linearGradient>
<linearGradient id="paint73_linear_120_223" x1="3.38005" y1="0" x2="3.38005" y2="7.13562" gradientUnits="userSpaceOnUse">
<stop stop-color="#16A482"/>
<stop offset="1" stop-color="#000415"/>
<stop offset="1" stop-color="#002C24"/>
</linearGradient>
<linearGradient id="paint74_linear_120_223" x1="3.38005" y1="0" x2="3.38005" y2="7.13562" gradientUnits="userSpaceOnUse">
<stop stop-color="#16A482"/>
<stop offset="1" stop-color="#000415"/>
<stop offset="1" stop-color="#002C24"/>
</linearGradient>
<linearGradient id="paint75_linear_120_223" x1="6.76009" y1="0" x2="6.76009" y2="14.0674" gradientUnits="userSpaceOnUse">
<stop stop-color="#0B5A47"/>
<stop offset="1" stop-color="#000415"/>
<stop offset="1" stop-color="#002C17"/>
</linearGradient>
<linearGradient id="paint76_linear_120_223" x1="340" y1="465" x2="294.074" y2="578.819" gradientUnits="userSpaceOnUse">
<stop stop-color="#456A64"/>
<stop offset="1" stop-color="#00160E"/>
</linearGradient>
</defs>
</svg>
