<svg width="553" height="609" viewBox="0 0 553 609" fill="none" xmlns="http://www.w3.org/2000/svg">
<circle r="18" transform="matrix(0 1 1 0 512 87)" fill="url(#paint0_linear_123_447)"/>
<circle r="18" transform="matrix(0 1 1 0 396 240)" fill="url(#paint1_linear_123_447)"/>
<circle r="9" transform="matrix(0 1 1 0 411 222)" fill="url(#paint2_linear_123_447)"/>
<circle r="9" transform="matrix(0 1 1 0 506 184)" fill="url(#paint3_linear_123_447)"/>
<ellipse rx="5" ry="4.5" transform="matrix(0 1 1 0 432.5 138)" fill="url(#paint4_linear_123_447)"/>
<path d="M478.5 222C488.165 222 496 214.165 496 204.5C496 194.835 488.165 187 478.5 187C468.835 187 461 194.835 461 204.5C461 214.165 468.835 222 478.5 222Z" fill="url(#paint5_linear_123_447)"/>
<circle r="13.5" transform="matrix(0 1 1 0 428.5 62.5)" fill="url(#paint6_linear_123_447)"/>
<ellipse rx="30.5" ry="31.5" transform="matrix(0 1 1 0 492.5 52.5)" fill="url(#paint7_linear_123_447)"/>
<circle r="16.5" transform="matrix(0 1 1 0 266.5 305.5)" fill="url(#paint8_linear_123_447)"/>
<ellipse rx="12" ry="11.5" transform="matrix(0 1 1 0 247.5 255)" fill="url(#paint9_linear_123_447)"/>
<ellipse rx="12" ry="11.5" transform="matrix(0 1 1 0 182.5 75)" fill="url(#paint10_linear_123_447)"/>
<circle r="5" transform="matrix(0 1 1 0 197 101)" fill="url(#paint11_linear_123_447)"/>
<ellipse rx="23.5" ry="23" transform="matrix(0 1 1 0 213 45.5)" fill="url(#paint12_linear_123_447)"/>
<ellipse rx="23.5" ry="23" transform="matrix(0 1 1 0 213 45.5)" fill="url(#paint13_linear_123_447)"/>
<ellipse rx="23.5" ry="23" transform="matrix(0 1 1 0 213 45.5)" fill="url(#paint14_linear_123_447)"/>
<ellipse rx="23.5" ry="23" transform="matrix(0 1 1 0 213 45.5)" fill="url(#paint15_linear_123_447)"/>
<ellipse rx="23.5" ry="23" transform="matrix(0 1 1 0 213 45.5)" fill="url(#paint16_linear_123_447)"/>
<ellipse rx="23.5" ry="23" transform="matrix(0 1 1 0 213 45.5)" fill="url(#paint17_linear_123_447)"/>
<circle r="16.5" transform="matrix(0 1 1 0 165.5 570.501)" fill="url(#paint18_linear_123_447)"/>
<circle r="16.5" transform="matrix(0 1 1 0 165.5 570.501)" fill="url(#paint19_linear_123_447)"/>
<circle r="16.5" transform="matrix(0 1 1 0 165.5 570.501)" fill="url(#paint20_linear_123_447)"/>
<circle r="16.5" transform="matrix(0 1 1 0 165.5 570.501)" fill="url(#paint21_linear_123_447)"/>
<circle r="16.5" transform="matrix(0 1 1 0 165.5 570.501)" fill="url(#paint22_linear_123_447)"/>
<circle r="16.5" transform="matrix(0 1 1 0 165.5 570.501)" fill="url(#paint23_linear_123_447)"/>
<ellipse rx="11.4719" ry="11.9339" transform="matrix(0.478653 0.878004 0.872797 -0.488083 504.21 289.21)" fill="url(#paint24_linear_123_447)"/>
<ellipse rx="2.56143" ry="2.65243" transform="matrix(0.465586 0.885003 0.865221 -0.50139 46.3538 463.64)" fill="url(#paint25_linear_123_447)"/>
<ellipse rx="8.73478" ry="8.95146" transform="matrix(0.478392 0.878147 0.87265 -0.488346 35.1661 377.12)" fill="url(#paint26_linear_123_447)"/>
<ellipse rx="3.85358" ry="3.94917" transform="matrix(0.478392 0.878147 0.87265 -0.488346 54.7228 388.255)" fill="url(#paint27_linear_123_447)"/>
<ellipse rx="17.4696" ry="18.1662" transform="matrix(0.478392 0.878147 0.87265 -0.488346 46.21 346.212)" fill="url(#paint28_linear_123_447)"/>
<ellipse rx="17.4696" ry="18.1662" transform="matrix(0.478392 0.878147 0.87265 -0.488346 46.21 346.212)" fill="url(#paint29_linear_123_447)"/>
<ellipse rx="17.4696" ry="18.1662" transform="matrix(0.478392 0.878147 0.87265 -0.488346 46.21 346.212)" fill="url(#paint30_linear_123_447)"/>
<ellipse rx="17.4696" ry="18.1662" transform="matrix(0.478392 0.878147 0.87265 -0.488346 46.21 346.212)" fill="url(#paint31_linear_123_447)"/>
<ellipse rx="17.4696" ry="18.1662" transform="matrix(0.478392 0.878147 0.87265 -0.488346 46.21 346.212)" fill="url(#paint32_linear_123_447)"/>
<ellipse rx="17.4696" ry="18.1662" transform="matrix(0.478392 0.878147 0.87265 -0.488346 46.21 346.212)" fill="url(#paint33_linear_123_447)"/>
<ellipse rx="22.9439" ry="23.5219" transform="matrix(0.478653 0.878004 0.872797 -0.488083 485.117 330.425)" fill="url(#paint34_linear_123_447)"/>
<ellipse rx="3.9628" ry="4.09027" transform="matrix(0 1 1 0 109.841 223.961)" fill="url(#paint35_linear_123_447)"/>
<ellipse rx="21.1727" ry="20.8223" transform="matrix(0 1 1 0 154.822 118.173)" fill="url(#paint36_linear_123_447)"/>
<ellipse rx="39.5" ry="37" transform="matrix(0 1 1 0 56 203.5)" fill="url(#paint37_linear_123_447)"/>
<ellipse rx="26.6562" ry="26.2152" transform="matrix(0 1 1 0 71.5302 26.6562)" fill="url(#paint38_linear_123_447)"/>
<ellipse rx="45.3983" ry="46.38" transform="matrix(0.168268 -0.985741 0.98352 0.180801 191.171 314.667)" fill="url(#paint39_linear_123_447)"/>
<ellipse rx="17.9796" ry="18.3449" transform="matrix(-0.249164 -0.968461 -0.969073 0.246776 111.257 513.94)" fill="url(#paint40_linear_123_447)"/>
<ellipse rx="26.6647" ry="26.2069" transform="matrix(-0.249164 -0.968461 -0.969073 0.246776 408.04 514.292)" fill="url(#paint41_linear_123_447)"/>
<ellipse rx="8.60888" ry="8.4611" transform="matrix(-0.249164 -0.968461 -0.969073 0.246776 65.4673 306.295)" fill="url(#paint42_linear_123_447)"/>
<ellipse rx="10.3611" ry="10.1833" transform="matrix(-0.249164 -0.968461 -0.969073 0.246776 71.8711 382.573)" fill="url(#paint43_linear_123_447)"/>
<ellipse rx="23.0715" ry="23.3949" transform="matrix(-0.257609 -0.966249 -0.971108 0.238642 535.338 486.693)" fill="url(#paint44_linear_123_447)"/>
<ellipse rx="13.3426" ry="14.1886" transform="matrix(0.654792 -0.755809 0.779935 0.62586 154.803 286.745)" fill="url(#paint45_linear_123_447)"/>
<ellipse rx="13.3426" ry="14.1886" transform="matrix(0.654792 -0.755809 0.779935 0.62586 154.803 286.745)" fill="url(#paint46_linear_123_447)"/>
<ellipse rx="13.3426" ry="14.1886" transform="matrix(0.654792 -0.755809 0.779935 0.62586 154.803 286.745)" fill="url(#paint47_linear_123_447)"/>
<ellipse rx="13.3426" ry="14.1886" transform="matrix(0.654792 -0.755809 0.779935 0.62586 154.803 286.745)" fill="url(#paint48_linear_123_447)"/>
<ellipse rx="13.3426" ry="14.1886" transform="matrix(0.654792 -0.755809 0.779935 0.62586 154.803 286.745)" fill="url(#paint49_linear_123_447)"/>
<ellipse rx="13.3426" ry="14.1886" transform="matrix(0.654792 -0.755809 0.779935 0.62586 154.803 286.745)" fill="url(#paint50_linear_123_447)"/>
<ellipse rx="10.5135" ry="10.333" transform="matrix(-0.249164 -0.968461 -0.969073 0.246776 70.0515 453.635)" fill="url(#paint51_linear_123_447)"/>
<ellipse rx="33.3285" ry="32.7987" transform="matrix(-0.249508 -0.968373 -0.969159 0.246436 189.103 454.94)" fill="url(#paint52_linear_123_447)"/>
<circle r="23" transform="matrix(-0.361627 -0.932323 -0.919583 0.392896 291.132 133.764)" fill="url(#paint53_linear_123_447)"/>
<ellipse rx="23.3082" ry="23.8398" transform="matrix(-0.372943 -0.927854 -0.924502 0.381177 414.845 217.714)" fill="url(#paint54_linear_123_447)"/>
<ellipse rx="11.4852" ry="11.9199" transform="matrix(-0.372943 -0.927854 -0.924502 0.381177 375.355 304.01)" fill="url(#paint55_linear_123_447)"/>
<ellipse rx="11.4852" ry="11.9199" transform="matrix(-0.372943 -0.927854 -0.924502 0.381177 436.489 415.323)" fill="url(#paint56_linear_123_447)"/>
<ellipse rx="11.4852" ry="11.9199" transform="matrix(-0.372943 -0.927854 -0.924502 0.381177 336.683 355.423)" fill="url(#paint57_linear_123_447)"/>
<ellipse rx="6.08039" ry="6.21908" transform="matrix(-0.372943 -0.927854 -0.924502 0.381177 367.454 354.065)" fill="url(#paint58_linear_123_447)"/>
<path d="M310.816 480.132C304.73 482.642 301.714 489.447 304.08 495.332C306.445 501.218 313.297 503.955 319.383 501.445C325.469 498.936 328.485 492.131 326.12 486.245C323.754 480.36 316.903 477.623 310.816 480.132Z" fill="url(#paint59_linear_123_447)"/>
<path d="M310.816 480.132C304.73 482.642 301.714 489.447 304.08 495.332C306.445 501.218 313.297 503.955 319.383 501.445C325.469 498.936 328.485 492.131 326.12 486.245C323.754 480.36 316.903 477.623 310.816 480.132Z" fill="url(#paint60_linear_123_447)"/>
<path d="M310.816 480.132C304.73 482.642 301.714 489.447 304.08 495.332C306.445 501.218 313.297 503.955 319.383 501.445C325.469 498.936 328.485 492.131 326.12 486.245C323.754 480.36 316.903 477.623 310.816 480.132Z" fill="url(#paint61_linear_123_447)"/>
<path d="M310.816 480.132C304.73 482.642 301.714 489.447 304.08 495.332C306.445 501.218 313.297 503.955 319.383 501.445C325.469 498.936 328.485 492.131 326.12 486.245C323.754 480.36 316.903 477.623 310.816 480.132Z" fill="url(#paint62_linear_123_447)"/>
<path d="M310.816 480.132C304.73 482.642 301.714 489.447 304.08 495.332C306.445 501.218 313.297 503.955 319.383 501.445C325.469 498.936 328.485 492.131 326.12 486.245C323.754 480.36 316.903 477.623 310.816 480.132Z" fill="url(#paint63_linear_123_447)"/>
<path d="M310.816 480.132C304.73 482.642 301.714 489.447 304.08 495.332C306.445 501.218 313.297 503.955 319.383 501.445C325.469 498.936 328.485 492.131 326.12 486.245C323.754 480.36 316.903 477.623 310.816 480.132Z" fill="url(#paint64_linear_123_447)"/>
<ellipse rx="17.5656" ry="18.139" transform="matrix(-0.372943 -0.927854 -0.924502 0.381177 389.818 416.758)" fill="url(#paint65_linear_123_447)"/>
<ellipse rx="6.75599" ry="6.91009" transform="matrix(-0.372943 -0.927854 -0.924502 0.381177 326.665 368.55)" fill="url(#paint66_linear_123_447)"/>
<ellipse rx="77.5" ry="77.5" transform="matrix(-0.361627 -0.932323 -0.919583 0.392896 498.294 579.705)" fill="url(#paint67_linear_123_447)"/>
<ellipse rx="39.8604" ry="42.3243" transform="matrix(-0.372943 -0.927854 -0.924502 0.381177 239.995 528.883)" fill="url(#paint68_linear_123_447)"/>
<ellipse rx="23.3226" ry="23.8263" transform="matrix(0.60057 0.799572 0.807622 -0.5897 417.272 353.104)" fill="url(#paint69_linear_123_447)"/>
<ellipse rx="2.94321" ry="3.08449" transform="matrix(0.654792 -0.755809 0.779935 0.62586 167.533 256.989)" fill="url(#paint70_linear_123_447)"/>
<ellipse rx="6.67128" ry="6.99151" transform="matrix(0.654792 -0.755809 0.779935 0.62586 150.68 262.32)" fill="url(#paint71_linear_123_447)"/>
<ellipse rx="13.3426" ry="14.1886" transform="matrix(0.654792 -0.755809 0.779935 0.62586 285.923 216.99)" fill="url(#paint72_linear_123_447)"/>
<ellipse rx="6.67128" ry="7.19714" transform="matrix(0.654792 -0.755809 0.779935 0.62586 248.57 211.15)" fill="url(#paint73_linear_123_447)"/>
<ellipse rx="6.67128" ry="7.19714" transform="matrix(0.654792 -0.755809 0.779935 0.62586 350.89 103.547)" fill="url(#paint74_linear_123_447)"/>
<ellipse rx="5.18057" ry="5.16651" transform="matrix(-0.249164 -0.968461 -0.969073 0.246776 59.5599 398.13)" fill="url(#paint75_linear_123_447)"/>
<path d="M45.5882 541.059C20.6029 547.422 5.70113 573.385 12.3042 599.05C18.9073 624.715 44.5147 640.363 69.5 634.001C94.4853 627.638 109.387 601.675 102.784 576.009C96.1809 550.344 70.5735 534.697 45.5882 541.059Z" fill="url(#paint76_linear_123_447)"/>
<defs>
<linearGradient id="paint0_linear_123_447" x1="18" y1="0" x2="18" y2="36" gradientUnits="userSpaceOnUse">
<stop stop-color="#032620"/>
<stop offset="1" stop-color="#001511"/>
</linearGradient>
<linearGradient id="paint1_linear_123_447" x1="18" y1="0" x2="18" y2="36" gradientUnits="userSpaceOnUse">
<stop stop-color="#03261C"/>
<stop offset="0.921875" stop-color="#001609"/>
<stop offset="1" stop-color="#000415"/>
</linearGradient>
<linearGradient id="paint2_linear_123_447" x1="9" y1="0" x2="9" y2="18" gradientUnits="userSpaceOnUse">
<stop stop-color="#0B5A3E"/>
<stop offset="1" stop-color="#000415"/>
<stop offset="1" stop-color="#002C21"/>
</linearGradient>
<linearGradient id="paint3_linear_123_447" x1="9" y1="0" x2="9" y2="18" gradientUnits="userSpaceOnUse">
<stop stop-color="#0B5A47"/>
<stop offset="1" stop-color="#000415"/>
<stop offset="1" stop-color="#002C17"/>
</linearGradient>
<linearGradient id="paint4_linear_123_447" x1="5" y1="0" x2="5" y2="9" gradientUnits="userSpaceOnUse">
<stop stop-color="#0B5A43"/>
<stop offset="1" stop-color="#000415"/>
<stop offset="1" stop-color="#002C21"/>
</linearGradient>
<linearGradient id="paint5_linear_123_447" x1="461" y1="204.5" x2="496" y2="204.5" gradientUnits="userSpaceOnUse">
<stop stop-color="#083A28"/>
<stop offset="0.911458"/>
</linearGradient>
<linearGradient id="paint6_linear_123_447" x1="13.5" y1="0" x2="13.5" y2="27" gradientUnits="userSpaceOnUse">
<stop stop-color="#107B61"/>
<stop offset="1" stop-color="#000415"/>
<stop offset="1"/>
</linearGradient>
<linearGradient id="paint7_linear_123_447" x1="30.5" y1="0" x2="30.5" y2="63" gradientUnits="userSpaceOnUse">
<stop stop-color="#106C4B"/>
<stop offset="0.776042" stop-color="#001810"/>
</linearGradient>
<linearGradient id="paint8_linear_123_447" x1="16.5" y1="0" x2="16.5" y2="33" gradientUnits="userSpaceOnUse">
<stop stop-color="#0B5A4C"/>
<stop offset="1" stop-color="#000415"/>
<stop offset="1" stop-color="#002C1C"/>
</linearGradient>
<linearGradient id="paint9_linear_123_447" x1="12" y1="0" x2="12" y2="23" gradientUnits="userSpaceOnUse">
<stop stop-color="#16A482"/>
<stop offset="1" stop-color="#000415"/>
<stop offset="1" stop-color="#002C24"/>
</linearGradient>
<linearGradient id="paint10_linear_123_447" x1="12" y1="0" x2="12" y2="23" gradientUnits="userSpaceOnUse">
<stop stop-color="#0B5A4C"/>
<stop offset="1" stop-color="#000415"/>
<stop offset="1" stop-color="#002C1C"/>
</linearGradient>
<linearGradient id="paint11_linear_123_447" x1="5" y1="0" x2="5" y2="10" gradientUnits="userSpaceOnUse">
<stop stop-color="#052820"/>
<stop offset="1" stop-color="#000415"/>
<stop offset="1"/>
</linearGradient>
<linearGradient id="paint12_linear_123_447" x1="23.5" y1="0" x2="23.5" y2="46" gradientUnits="userSpaceOnUse">
<stop stop-color="#161298"/>
<stop offset="1" stop-color="#000415"/>
<stop offset="1" stop-color="#000D4B"/>
</linearGradient>
<linearGradient id="paint13_linear_123_447" x1="23.5" y1="0" x2="23.5" y2="46" gradientUnits="userSpaceOnUse">
<stop stop-color="#161298"/>
<stop offset="1" stop-color="#000415"/>
<stop offset="1" stop-color="#000D4B"/>
</linearGradient>
<linearGradient id="paint14_linear_123_447" x1="23.5" y1="0" x2="23.5" y2="46" gradientUnits="userSpaceOnUse">
<stop stop-color="#161298"/>
<stop offset="1" stop-color="#000415"/>
<stop offset="1" stop-color="#000D4B"/>
</linearGradient>
<linearGradient id="paint15_linear_123_447" x1="23.5" y1="0" x2="23.5" y2="46" gradientUnits="userSpaceOnUse">
<stop stop-color="#161298"/>
<stop offset="1" stop-color="#000415"/>
<stop offset="1" stop-color="#000D4B"/>
</linearGradient>
<linearGradient id="paint16_linear_123_447" x1="23.5" y1="0" x2="23.5" y2="46" gradientUnits="userSpaceOnUse">
<stop stop-color="#161298"/>
<stop offset="1" stop-color="#000415"/>
<stop offset="1" stop-color="#000D4B"/>
</linearGradient>
<linearGradient id="paint17_linear_123_447" x1="23.5" y1="0" x2="23.5" y2="46" gradientUnits="userSpaceOnUse">
<stop stop-color="#129880"/>
<stop offset="1" stop-color="#000415"/>
<stop offset="1" stop-color="#004B27"/>
</linearGradient>
<linearGradient id="paint18_linear_123_447" x1="16.5" y1="0" x2="16.5" y2="33" gradientUnits="userSpaceOnUse">
<stop stop-color="#161298"/>
<stop offset="1" stop-color="#000415"/>
<stop offset="1" stop-color="#000D4B"/>
</linearGradient>
<linearGradient id="paint19_linear_123_447" x1="16.5" y1="0" x2="16.5" y2="33" gradientUnits="userSpaceOnUse">
<stop stop-color="#161298"/>
<stop offset="1" stop-color="#000415"/>
<stop offset="1" stop-color="#000D4B"/>
</linearGradient>
<linearGradient id="paint20_linear_123_447" x1="16.5" y1="0" x2="16.5" y2="33" gradientUnits="userSpaceOnUse">
<stop stop-color="#161298"/>
<stop offset="1" stop-color="#000415"/>
<stop offset="1" stop-color="#000D4B"/>
</linearGradient>
<linearGradient id="paint21_linear_123_447" x1="16.5" y1="0" x2="16.5" y2="33" gradientUnits="userSpaceOnUse">
<stop stop-color="#161298"/>
<stop offset="1" stop-color="#000415"/>
<stop offset="1" stop-color="#000D4B"/>
</linearGradient>
<linearGradient id="paint22_linear_123_447" x1="16.5" y1="0" x2="16.5" y2="33" gradientUnits="userSpaceOnUse">
<stop stop-color="#161298"/>
<stop offset="1" stop-color="#000415"/>
<stop offset="1" stop-color="#000D4B"/>
</linearGradient>
<linearGradient id="paint23_linear_123_447" x1="16.5" y1="0" x2="16.5" y2="33" gradientUnits="userSpaceOnUse">
<stop stop-color="#129880"/>
<stop offset="1" stop-color="#000415"/>
<stop offset="1" stop-color="#004B27"/>
</linearGradient>
<linearGradient id="paint24_linear_123_447" x1="11.4719" y1="0" x2="11.4719" y2="23.8678" gradientUnits="userSpaceOnUse">
<stop stop-color="#0B5A47"/>
<stop offset="1" stop-color="#000415"/>
<stop offset="1" stop-color="#002C17"/>
</linearGradient>
<linearGradient id="paint25_linear_123_447" x1="2.56143" y1="0" x2="2.56143" y2="5.30485" gradientUnits="userSpaceOnUse">
<stop stop-color="#16A482"/>
<stop offset="1" stop-color="#000415"/>
<stop offset="1" stop-color="#002C24"/>
</linearGradient>
<linearGradient id="paint26_linear_123_447" x1="8.73478" y1="0" x2="8.73478" y2="17.9029" gradientUnits="userSpaceOnUse">
<stop stop-color="#0B5A4C"/>
<stop offset="1" stop-color="#000415"/>
<stop offset="1" stop-color="#002C1C"/>
</linearGradient>
<linearGradient id="paint27_linear_123_447" x1="3.85358" y1="0" x2="3.85358" y2="7.89835" gradientUnits="userSpaceOnUse">
<stop stop-color="#052820"/>
<stop offset="1" stop-color="#000415"/>
<stop offset="1"/>
</linearGradient>
<linearGradient id="paint28_linear_123_447" x1="17.4696" y1="0" x2="17.4696" y2="36.3324" gradientUnits="userSpaceOnUse">
<stop stop-color="#161298"/>
<stop offset="1" stop-color="#000415"/>
<stop offset="1" stop-color="#000D4B"/>
</linearGradient>
<linearGradient id="paint29_linear_123_447" x1="17.4696" y1="0" x2="17.4696" y2="36.3324" gradientUnits="userSpaceOnUse">
<stop stop-color="#161298"/>
<stop offset="1" stop-color="#000415"/>
<stop offset="1" stop-color="#000D4B"/>
</linearGradient>
<linearGradient id="paint30_linear_123_447" x1="17.4696" y1="0" x2="17.4696" y2="36.3324" gradientUnits="userSpaceOnUse">
<stop stop-color="#161298"/>
<stop offset="1" stop-color="#000415"/>
<stop offset="1" stop-color="#000D4B"/>
</linearGradient>
<linearGradient id="paint31_linear_123_447" x1="17.4696" y1="0" x2="17.4696" y2="36.3324" gradientUnits="userSpaceOnUse">
<stop stop-color="#161298"/>
<stop offset="1" stop-color="#000415"/>
<stop offset="1" stop-color="#000D4B"/>
</linearGradient>
<linearGradient id="paint32_linear_123_447" x1="17.4696" y1="0" x2="17.4696" y2="36.3324" gradientUnits="userSpaceOnUse">
<stop stop-color="#161298"/>
<stop offset="1" stop-color="#000415"/>
<stop offset="1" stop-color="#000D4B"/>
</linearGradient>
<linearGradient id="paint33_linear_123_447" x1="17.4696" y1="0" x2="17.4696" y2="36.3324" gradientUnits="userSpaceOnUse">
<stop stop-color="#129880"/>
<stop offset="1" stop-color="#000415"/>
<stop offset="1" stop-color="#004B27"/>
</linearGradient>
<linearGradient id="paint34_linear_123_447" x1="22.9439" y1="0" x2="22.9439" y2="47.0438" gradientUnits="userSpaceOnUse">
<stop stop-color="#083A28"/>
<stop offset="0.911458"/>
</linearGradient>
<linearGradient id="paint35_linear_123_447" x1="3.9628" y1="0" x2="3.9628" y2="8.18055" gradientUnits="userSpaceOnUse">
<stop stop-color="#0B5A43"/>
<stop offset="1" stop-color="#000415"/>
<stop offset="1" stop-color="#002C21"/>
</linearGradient>
<linearGradient id="paint36_linear_123_447" x1="21.1727" y1="0" x2="21.1727" y2="41.6447" gradientUnits="userSpaceOnUse">
<stop stop-color="#03261C"/>
<stop offset="1" stop-color="#001511"/>
</linearGradient>
<linearGradient id="paint37_linear_123_447" x1="21" y1="25" x2="63" y2="74" gradientUnits="userSpaceOnUse">
<stop stop-color="#085845"/>
<stop offset="1" stop-color="#000415"/>
<stop offset="1" stop-color="#00150E"/>
</linearGradient>
<linearGradient id="paint38_linear_123_447" x1="26.6562" y1="0" x2="26.6562" y2="52.4304" gradientUnits="userSpaceOnUse">
<stop stop-color="#09483D"/>
<stop offset="1"/>
</linearGradient>
<linearGradient id="paint39_linear_123_447" x1="45.3983" y1="0" x2="45.3983" y2="92.7599" gradientUnits="userSpaceOnUse">
<stop stop-color="#106C4B"/>
<stop offset="0.776042" stop-color="#001810"/>
</linearGradient>
<linearGradient id="paint40_linear_123_447" x1="17.9796" y1="0" x2="17.9796" y2="36.6897" gradientUnits="userSpaceOnUse">
<stop stop-color="#106C4B"/>
<stop offset="0.776042" stop-color="#001810"/>
</linearGradient>
<linearGradient id="paint41_linear_123_447" x1="26.6647" y1="0" x2="26.6647" y2="52.4139" gradientUnits="userSpaceOnUse">
<stop stop-color="#09483D"/>
<stop offset="1"/>
</linearGradient>
<linearGradient id="paint42_linear_123_447" x1="8.60888" y1="0" x2="8.60888" y2="16.9222" gradientUnits="userSpaceOnUse">
<stop stop-color="#085845"/>
<stop offset="1" stop-color="#000415"/>
<stop offset="1" stop-color="#00150E"/>
</linearGradient>
<linearGradient id="paint43_linear_123_447" x1="10.3611" y1="0" x2="10.3611" y2="20.3665" gradientUnits="userSpaceOnUse">
<stop stop-color="#083A28"/>
<stop offset="0.911458"/>
</linearGradient>
<linearGradient id="paint44_linear_123_447" x1="23.0715" y1="0" x2="23.0715" y2="46.7897" gradientUnits="userSpaceOnUse">
<stop stop-color="#083A28"/>
<stop offset="0.911458"/>
</linearGradient>
<linearGradient id="paint45_linear_123_447" x1="13.3426" y1="0" x2="13.3426" y2="28.3773" gradientUnits="userSpaceOnUse">
<stop stop-color="#161298"/>
<stop offset="1" stop-color="#000415"/>
<stop offset="1" stop-color="#000D4B"/>
</linearGradient>
<linearGradient id="paint46_linear_123_447" x1="13.3426" y1="0" x2="13.3426" y2="28.3773" gradientUnits="userSpaceOnUse">
<stop stop-color="#161298"/>
<stop offset="1" stop-color="#000415"/>
<stop offset="1" stop-color="#000D4B"/>
</linearGradient>
<linearGradient id="paint47_linear_123_447" x1="13.3426" y1="0" x2="13.3426" y2="28.3773" gradientUnits="userSpaceOnUse">
<stop stop-color="#161298"/>
<stop offset="1" stop-color="#000415"/>
<stop offset="1" stop-color="#000D4B"/>
</linearGradient>
<linearGradient id="paint48_linear_123_447" x1="13.3426" y1="0" x2="13.3426" y2="28.3773" gradientUnits="userSpaceOnUse">
<stop stop-color="#161298"/>
<stop offset="1" stop-color="#000415"/>
<stop offset="1" stop-color="#000D4B"/>
</linearGradient>
<linearGradient id="paint49_linear_123_447" x1="13.3426" y1="0" x2="13.3426" y2="28.3773" gradientUnits="userSpaceOnUse">
<stop stop-color="#161298"/>
<stop offset="1" stop-color="#000415"/>
<stop offset="1" stop-color="#000D4B"/>
</linearGradient>
<linearGradient id="paint50_linear_123_447" x1="13.3426" y1="0" x2="13.3426" y2="28.3773" gradientUnits="userSpaceOnUse">
<stop stop-color="#129880"/>
<stop offset="1" stop-color="#000415"/>
<stop offset="1" stop-color="#004B27"/>
</linearGradient>
<linearGradient id="paint51_linear_123_447" x1="10.5135" y1="0" x2="10.5135" y2="20.666" gradientUnits="userSpaceOnUse">
<stop stop-color="#032620"/>
<stop offset="1" stop-color="#001511"/>
</linearGradient>
<linearGradient id="paint52_linear_123_447" x1="33.3285" y1="0" x2="33.3285" y2="65.5973" gradientUnits="userSpaceOnUse">
<stop stop-color="#032620"/>
<stop offset="1" stop-color="#001511"/>
</linearGradient>
<linearGradient id="paint53_linear_123_447" x1="23" y1="0" x2="23" y2="46" gradientUnits="userSpaceOnUse">
<stop stop-color="#3DB49E"/>
<stop offset="1" stop-color="#001511"/>
</linearGradient>
<linearGradient id="paint54_linear_123_447" x1="23.3082" y1="0" x2="23.3082" y2="47.6796" gradientUnits="userSpaceOnUse">
<stop stop-color="#03261C"/>
<stop offset="0.921875" stop-color="#001609"/>
<stop offset="1" stop-color="#000415"/>
</linearGradient>
<linearGradient id="paint55_linear_123_447" x1="11.4852" y1="0" x2="11.4852" y2="23.8398" gradientUnits="userSpaceOnUse">
<stop stop-color="#0B5A3E"/>
<stop offset="1" stop-color="#000415"/>
<stop offset="1" stop-color="#002C21"/>
</linearGradient>
<linearGradient id="paint56_linear_123_447" x1="11.4852" y1="0" x2="11.4852" y2="23.8398" gradientUnits="userSpaceOnUse">
<stop stop-color="#0B5A4C"/>
<stop offset="1" stop-color="#000415"/>
<stop offset="1" stop-color="#002C1C"/>
</linearGradient>
<linearGradient id="paint57_linear_123_447" x1="11.4852" y1="0" x2="11.4852" y2="23.8398" gradientUnits="userSpaceOnUse">
<stop stop-color="#0B5A47"/>
<stop offset="1" stop-color="#000415"/>
<stop offset="1" stop-color="#002C17"/>
</linearGradient>
<linearGradient id="paint58_linear_123_447" x1="6.08039" y1="0" x2="6.08039" y2="12.4382" gradientUnits="userSpaceOnUse">
<stop stop-color="#0B5A43"/>
<stop offset="1" stop-color="#000415"/>
<stop offset="1" stop-color="#002C21"/>
</linearGradient>
<linearGradient id="paint59_linear_123_447" x1="443.236" y1="279.342" x2="421.117" y2="288.232" gradientUnits="userSpaceOnUse">
<stop stop-color="#161298"/>
<stop offset="1" stop-color="#000415"/>
<stop offset="1" stop-color="#000D4B"/>
</linearGradient>
<linearGradient id="paint60_linear_123_447" x1="443.236" y1="279.342" x2="421.117" y2="288.232" gradientUnits="userSpaceOnUse">
<stop stop-color="#161298"/>
<stop offset="1" stop-color="#000415"/>
<stop offset="1" stop-color="#000D4B"/>
</linearGradient>
<linearGradient id="paint61_linear_123_447" x1="443.236" y1="279.342" x2="421.117" y2="288.232" gradientUnits="userSpaceOnUse">
<stop stop-color="#161298"/>
<stop offset="1" stop-color="#000415"/>
<stop offset="1" stop-color="#000D4B"/>
</linearGradient>
<linearGradient id="paint62_linear_123_447" x1="443.236" y1="279.342" x2="421.117" y2="288.232" gradientUnits="userSpaceOnUse">
<stop stop-color="#161298"/>
<stop offset="1" stop-color="#000415"/>
<stop offset="1" stop-color="#000D4B"/>
</linearGradient>
<linearGradient id="paint63_linear_123_447" x1="443.236" y1="279.342" x2="421.117" y2="288.232" gradientUnits="userSpaceOnUse">
<stop stop-color="#161298"/>
<stop offset="1" stop-color="#000415"/>
<stop offset="1" stop-color="#000D4B"/>
</linearGradient>
<linearGradient id="paint64_linear_123_447" x1="443.236" y1="279.342" x2="421.117" y2="288.232" gradientUnits="userSpaceOnUse">
<stop stop-color="#129880"/>
<stop offset="1" stop-color="#000415"/>
<stop offset="1" stop-color="#004B27"/>
</linearGradient>
<linearGradient id="paint65_linear_123_447" x1="17.5656" y1="0" x2="17.5656" y2="36.278" gradientUnits="userSpaceOnUse">
<stop stop-color="#107B61"/>
<stop offset="1" stop-color="#000415"/>
<stop offset="1"/>
</linearGradient>
<linearGradient id="paint66_linear_123_447" x1="6.75599" y1="0" x2="6.75599" y2="13.8202" gradientUnits="userSpaceOnUse">
<stop stop-color="#0B5A43"/>
<stop offset="1" stop-color="#000415"/>
<stop offset="1" stop-color="#002C21"/>
</linearGradient>
<linearGradient id="paint67_linear_123_447" x1="77.5" y1="0" x2="77.5" y2="155" gradientUnits="userSpaceOnUse">
<stop stop-color="#09483D"/>
<stop offset="1"/>
</linearGradient>
<linearGradient id="paint68_linear_123_447" x1="39.8604" y1="0" x2="39.8604" y2="84.6486" gradientUnits="userSpaceOnUse">
<stop stop-color="#106C4B"/>
<stop offset="0.776042" stop-color="#001810"/>
</linearGradient>
<linearGradient id="paint69_linear_123_447" x1="22.5369" y1="49.5166" x2="21.4579" y2="8.20931" gradientUnits="userSpaceOnUse">
<stop stop-color="#3E8679"/>
<stop offset="1" stop-color="#001511"/>
</linearGradient>
<linearGradient id="paint70_linear_123_447" x1="2.94321" y1="0" x2="2.94321" y2="6.16898" gradientUnits="userSpaceOnUse">
<stop stop-color="#052820"/>
<stop offset="1" stop-color="#000415"/>
<stop offset="1"/>
</linearGradient>
<linearGradient id="paint71_linear_123_447" x1="6.67128" y1="0" x2="6.67128" y2="13.983" gradientUnits="userSpaceOnUse">
<stop stop-color="#0B5A4C"/>
<stop offset="1" stop-color="#000415"/>
<stop offset="1" stop-color="#002C1C"/>
</linearGradient>
<linearGradient id="paint72_linear_123_447" x1="13.3426" y1="0" x2="13.3426" y2="28.3773" gradientUnits="userSpaceOnUse">
<stop stop-color="#083A2E"/>
<stop offset="1" stop-color="#000415"/>
<stop offset="1"/>
</linearGradient>
<linearGradient id="paint73_linear_123_447" x1="6.67128" y1="0" x2="6.67128" y2="14.3943" gradientUnits="userSpaceOnUse">
<stop stop-color="#16A482"/>
<stop offset="1" stop-color="#000415"/>
<stop offset="1" stop-color="#002C24"/>
</linearGradient>
<linearGradient id="paint74_linear_123_447" x1="6.67128" y1="0" x2="6.67128" y2="14.3943" gradientUnits="userSpaceOnUse">
<stop stop-color="#16A482"/>
<stop offset="1" stop-color="#000415"/>
<stop offset="1" stop-color="#002C24"/>
</linearGradient>
<linearGradient id="paint75_linear_123_447" x1="5.18057" y1="0" x2="5.18057" y2="10.333" gradientUnits="userSpaceOnUse">
<stop stop-color="#0B5A47"/>
<stop offset="1" stop-color="#000415"/>
<stop offset="1" stop-color="#002C17"/>
</linearGradient>
<linearGradient id="paint76_linear_123_447" x1="-146.63" y1="352.77" x2="111.596" y2="589.148" gradientUnits="userSpaceOnUse">
<stop offset="0.745999" stop-color="#456A64"/>
<stop offset="1" stop-color="#00160E"/>
</linearGradient>
</defs>
</svg>
